<svg id="Pesca" xmlns="http://www.w3.org/2000/svg" viewBox="0 0 600 221.02"><defs><style>.cls-1{fill:#1b75bc;}</style></defs><title>pesca</title><g id="BxGuEk"><path class="cls-1" d="M6.71,321.5c-.8-7.64-.73-7.3,6.66-8.78,2.76-.56,5.88-1,8.2-4.06,1.67-2.18,5.47-2.83,8.42-3.91,5.44-2,11-3.69,16.42-5.68,5.14-1.88,10.1-4.25,15.31-5.89,7.48-2.35,15.1-4.28,22.69-6.27a83.8,83.8,0,0,1,11.52-2.53c8.12-.94,16.28-1.85,24.45-2.11,12-.38,23.93-1.38,36,.72a27.65,27.65,0,0,0,22.84-6.09c4.39-3.67,9-7.14,13.67-10.4,1.64-1.14,4.1-1.05,5.84-2.1,3.86-2.33,7.29-5.4,11.26-7.5,8-4.24,16.24-7.93,24.27-12.05A122.42,122.42,0,0,0,247.81,237c1.64-1.12,2.36-3.58,4-6.18l2.88,4.31c3-1.12,5.71-2.09,8.37-3.08,9.88-3.69,19.58-7.82,30-10,4.79-1,9-4.44,13.75-6.06,6-2.06,12.26-3.31,18.36-5.07,2.37-.68,4.55-2,6.92-2.67,3.12-.91,6.36-1.44,9.52-2.24,2.58-.65,5.14-1.44,7.69-2.21,1.12-.34,2.17-.87,3.3-1.18q6-1.65,12-3.21c5.32-1.37,10.62-2.89,16-4s10.64-1.93,16-2.52c4.42-.49,8.93-.21,13.35-.7,6.68-.74,13.3-1.92,20-2.74,2.06-.25,4.2.29,6.27.09,12.34-1.22,24.26.86,36.14,4,8,2.13,16.55,2.55,24.18,5.5,6.71,2.6,14.26,3,20.24,8.09,3,2.58,8.17,2.49,11.84,4.53,5.87,3.25,11.31,7.27,16.94,10.94,3,2,6.07,4,9.15,5.89,8.84,5.54,14.69,14.06,21.83,21.33,4.69,4.78,6.83,10.5,9.59,16.17,1.67,3.43,4,6.51,6.11,9.75l1.1-.67c.08.29.32.71.21.85-3.46,4.36-1.06,7.38,1.87,10.8.89,1-.29,3.86-.57,6.29,1.49,3.19,3.31,7,5.07,10.92a1.67,1.67,0,0,1-.06,1.27c-3.34,6.61-1.53,13.58-1.46,20.43,0,.75.32,1.88,0,2.19-4.21,3.55-2.48,8.88-4.08,13.18a8.78,8.78,0,0,1-1.77,3.48c-3.58,3.23-7.36,6.26-11.06,9.36a3.61,3.61,0,0,1-1.08.81c-10.82,3.23-20,10.72-32.19,10.74-10.54,0-21.07,2-31.6,3.17-4.49.5-9,1.71-13.45,1.53-6.55-.27-13.06-1.52-19.59-2.34-1-.13-2.06-.22-3.09-.27-7.23-.31-14.52-.16-21.68-1-8.76-1-17.44-2.81-26.12-4.4-7-1.27-13.85-2.94-20.83-4.09-6.3-1-12.75-1.23-19-2.46-7.3-1.44-14.46-3.6-21.67-5.47-.67-.17-1.48-.89-1.92-.69-6.06,2.8-11.53-1.65-17.46-1.36-3.57.17-7.22-1.54-10.84-2.4-6.42-1.53-12.82-4.23-19.26-4.32C311.21,341.2,302.17,336,292,335c-6.43-.63-12.66-3.27-19-4.88-2.67-.68-5.43-1-8.13-1.55-10.26-2.25-20.35-5.12-31-5.43-4.95-.15-9.81-2.31-14.77-3.29-2-.4-4.16-.07-6.07-.07-.78,2.39-1.53,4.58-2.19,6.8-.34,1.11-1,2.47-.69,3.38,1.74,4.52-.77,6.92-3.47,10.17-2.86,3.44-4.26,8.23-5.77,12.61-.8,2.32-.12,5.11-.71,7.54-1,3.92-2.38,7.72-3.66,11.55S194,379.27,192.7,383c-.15.43-.52,1-.38,1.27,2.63,5.23-1.2,8-4,11.42-2.64,3.31-4.84,7-8.71,8.95-4.2,2.09-8.64,3.72-13,5.55a.59.59,0,0,1-.44,0,4.66,4.66,0,0,1-1.53-.91c-3-3.8-9.86-3-10.72-9.77a14.72,14.72,0,0,0-4.81-9c-4-3.14-9.07-5-13.75-7.26-4.09-2-8.34-3.62-12.4-5.65-4.91-2.45-9.7-5.14-14.53-7.74-1.18-.64-2.26-1.51-3.48-2-3.06-1.32-6.15-2.63-9.3-3.73-5.85-2-12-3.28-16.37-8.39-.68-.8-2.34-.79-3.55-1.13-3.73-1.06-7.42-2.25-11.19-3.13-7.25-1.68-14.94-2.23-21.68-5.06-5.11-2.14-8,.7-11.85,1.83-4.55,1.35-9.07,3.07-13.73,3.69-2.17.29-4.69-1.5-7-2.55C3.33,346.06-.84,341,.27,332.7a9.77,9.77,0,0,0-.08-2.27C-.48,324,.39,322.81,6.71,321.5ZM362.28,228.2a49.85,49.85,0,0,1-6.2,2.63c-6.8,1.8-13.7,3.25-20.46,5.18-3.51,1-6.77,3.71-10.24,3.88-7.45.37-13.23,4.79-19.94,6.81-3.78,1.14-7.57,2.23-11.31,3.48s-7.58,2.55-11.25,4.11c-3.49,1.49-6.72,3.59-10.24,5-7,2.79-14.22,5.23-21.31,7.89a45.88,45.88,0,0,0-9.37,4.91c-6,4-13.24,6.22-19.86,9.38-2.14,1-4,2.69-6.77,4.65,2.87,1.24,4.54,2.33,6.36,2.68,7.06,1.38,14.17,2.56,21.26,3.76,12.52,2.11,25.06,4.13,37.57,6.29,5.86,1,11.73,2.05,17.49,3.47,15.11,3.72,30.09,8,45.27,11.4,12.65,2.82,25.51,4.71,38.28,7,6.8,1.2,13.58,2.55,20.43,3.38,5.55.67,11.09.32,16.54,2.67,3.47,1.49,7.78,1,11.71,1.45a22.23,22.23,0,0,1,3,.65c7,1.82,14,3.92,21.07,5.4,5,1,10.64-.82,14.66,4,.49.59,2,.52,3,.43,8.25-.71,16.48,1.41,24.81-.38,4.9-1,10.15-.49,15.24-.63,4-.11,8.07-.06,12.08-.31a70.91,70.91,0,0,0,10.77-1.22c7.33-1.61,14.59-3.53,21.86-5.42,3.3-.85,7.11-1.18,9.66-3.1s5.6-5.9,5.08-8.24c-1.3-5.9.38-12-3.06-17.94-3.69-6.39-4.24-14.56-7.77-21.09-3.44-6.37-8.51-12-13.61-17.29-3.75-3.86-8.64-6.64-13.12-9.76-5.68-4-11.37-7.94-17.22-11.64-5.17-3.27-11.27-4.73-16.64-7.31a138.33,138.33,0,0,0-25.3-9c-5.13-1.34-10.5-1.75-15.75-2.65-3.31-.57-6.57-1.49-9.89-1.9-4.23-.53-8.5-.83-12.76-1-6.93-.31-14.14-1.72-20.71-.27a55.62,55.62,0,0,1-15.42,1.61c-.71,0-1.43.48-2.17.61-5.46.92-10.93,1.78-16.38,2.72-4.68.81-10,.65-13.81,2.95C365.24,229,363.86,229.37,362.28,228.2ZM82.39,318.54l-.23,2.38c3.31,1.22,7,1.89,9.86,3.77,6.43,4.21,14.37,5.63,20,11.38,1.79,1.84,4.81,2.5,7.3,3.61a4.52,4.52,0,0,0,1.8.11c6.17-.07,11.1,2.87,15.76,6.49,1.16.9,2.28,2.16,3.61,2.48A86.2,86.2,0,0,1,160.14,356a27.28,27.28,0,0,0,3.88,1.19c2.82.94,4.71-.54,5.18-2.9,1.73-8.55,5.32-16.35,8.86-24.23,1.41-3.13,1.46-6.87,2.25-10.94-5.12.81-9.59.95-13.62,2.34-3.26,1.13-5.53.16-7.11-1.92-3.88-5.08-9.2-5.79-14.9-5.9a30.2,30.2,0,0,1-3.62-.1c-9-1.27-18-3-27.21-.89-3.65.85-7.45,1-11.15,1.66-4.25.75-8.47,1.71-12.71,2.59C87.45,317.46,84.92,318,82.39,318.54Z" transform="translate(0 -189.2)"/><path class="cls-1" d="M451.34,295.59c9.85-13.37,23-22.2,40.19-23.73,3.74-.54,7.63-.61,11.18-1.76s6.58-1,9.76,1c1.42.88,3.29,1,4.9,1.6s3.19,1.45,3.83,2.87c.43,1.61.51,3.44,1.34,4.8,3,5,1.62,18.86-3.12,22.22a142.93,142.93,0,0,1-18.11,10.8c-2.37,1.2-5.6.72-8.44.95-6.57.51-13.57-1.18-19.62,2-6.64,3.46-11.86,1.38-17.67-1.82-4.19-2.31-3.82-5.92-4.18-9.41C451.1,302,451.34,299,451.34,295.59Z" transform="translate(0 -189.2)"/></g></svg>