<svg xmlns="http://www.w3.org/2000/svg" xmlns:xlink="http://www.w3.org/1999/xlink" width="24" height="24" viewBox="0 0 24 24">
  <title>AC</title>
  <g id="d7d0e980-d895-466e-b4dc-8705582b995d" data-name="iconos">
    <polygon points="15 24 9 24 11 0 13 0 15 24" fill="#d06b00"/>
    <rect x="13" y="8" width="6" height="1" fill="#d06b00"/>
    <rect x="6" y="9" width="6" height="1" fill="#d06b00"/>
    <rect x="15.25" y="6.75" width="2.5" height="1" transform="translate(9.25 23.75) rotate(-90)" fill="#d06b00"/>
    <rect x="7.25" y="7.75" width="2.5" height="1" transform="translate(0.25 16.75) rotate(-90)" fill="#d06b00"/>
    <rect y="3" width="11" height="4" rx="1.5" ry="1.5" transform="translate(11 10) rotate(180)" fill="#2a520a"/>
    <rect x="18" y="7" width="6" height="3" rx="1.5" ry="1.5" transform="translate(42 17) rotate(-180)" fill="#2a520a"/>
    <rect x="14" width="8" height="3" rx="1.5" ry="1.5" transform="translate(36 3) rotate(-180)" fill="#3a8000"/>
    <rect x="1" y="7" width="6" height="3" rx="1.5" ry="1.5" transform="translate(8 17) rotate(180)" fill="#3a8000"/>
    <rect x="2.88" width="8" height="3" rx="1.5" ry="1.5" transform="translate(13.75 3) rotate(180)" fill="#3a8000"/>
    <rect x="14" y="3" width="10" height="4" rx="1.5" ry="1.5" transform="translate(38 10) rotate(180)" fill="#3a8000"/>
    <rect x="7" width="11" height="4" rx="1.5" ry="1.5" transform="translate(25 4) rotate(180)" fill="#2a520a"/>
    <polygon points="20 24 4 24 7 22 17 22 20 24" fill="#d06b00"/>
  </g>
</svg>
