<svg id="Layer_1" data-name="Layer 1" xmlns="http://www.w3.org/2000/svg" width="100" height="100" viewBox="0 0 100 100"><title>arbol-100px</title><path d="M52.7839,32.7632l.1911,5.2556.826,22.7154.4974,13.68c.085,2.3384.376,4.7712.2448,7.1067a14.25,14.25,0,0,0,1.42,5.8946,23.4756,23.4756,0,0,0,4.0288,6.6954,31.1092,31.1092,0,0,0,3.8855,3.7059,25.3364,25.3364,0,0,0,2.2507,1.6c.4717.2971,1.7163.7286,1.8322,1.2557-3.2545.358-6.785-.0571-10.07-.0576-3.2586-.0005-6.5927.0152-9.8043.0152-3.15,0-6.2848.1315-9.4379.0951a29.7578,29.7578,0,0,1-5.3143-.16c.1857-.5761,1.1142-1.1454,1.5427-1.6141a14.35,14.35,0,0,0,1.319-1.6774,26.1936,26.1936,0,0,0,1.5275-2.69q2.5162-4.91,4.666-9.997c1.3887-3.2861,1.3414-6.4625,1.4691-9.9722L44.88,46.5109l.5-13.7477c0-3.4057.2961-6.17,3.7018-6.17S52.7839,29.3575,52.7839,32.7632Z" fill="#d06b00"/><g id="_9797b750-3db3-4496-bf5e-7a95c26ab4ae" data-name="9797b750-3db3-4496-bf5e-7a95c26ab4ae"><path d="M51.2887,32.5261l5.6406-5.6406a.9971.9971,0,0,1,1.41,0h0a.9971.9971,0,0,1,0,1.41l-5.6406,5.6406a.9971.9971,0,0,1-1.41,0h0A.9971.9971,0,0,1,51.2887,32.5261Z" fill="#d06b00"/><path d="M41.0231,33.5765V25.6a.9971.9971,0,0,1,.9971-.9971h0a.9971.9971,0,0,1,.9971.9971v7.977a.9971.9971,0,0,1-.9971.9971h0A.9971.9971,0,0,1,41.0231,33.5765Z" fill="#d06b00"/><path d="M46.0087,34.5736h-7.977a.9971.9971,0,0,1-.9971-.9971h0a.9971.9971,0,0,1,.9971-.9971h7.977a.9971.9971,0,0,1,.9971.9971h0A.9971.9971,0,0,1,46.0087,34.5736Z" fill="#d06b00"/><circle cx="68.8826" cy="25.5397" r="14.897" fill="#2a520a"/><circle cx="19.0864" cy="20.6139" r="9.9712" fill="#2a520a"/><circle cx="28.9779" cy="10.6427" r="9.9712" fill="#3a8000"/><circle cx="28.9779" cy="30.5851" r="9.9712" fill="#3a8000"/><circle cx="68.9425" cy="10.6427" r="9.9712" fill="#3a8000"/><circle cx="78.9536" cy="30.5851" r="9.9712" fill="#3a8000"/><circle cx="43.9546" cy="15.6881" r="14.897" fill="#2a520a"/><circle cx="68.9425" cy="20.6139" r="9.9712" fill="#2a520a"/><path d="M49.9972,38.5621h7.977a.9971.9971,0,0,1,.9971.9971h0a.9971.9971,0,0,1-.9971.9971h-7.977A.9971.9971,0,0,1,49,39.5592h0A.9971.9971,0,0,1,49.9972,38.5621Z" fill="#d06b00"/><path d="M57.6161,38.5183l5.6406-5.6406a.9971.9971,0,0,1,1.41,0h0a.9971.9971,0,0,1,0,1.41l-5.6406,5.6406a.9971.9971,0,0,1-1.41,0h0A.9971.9971,0,0,1,57.6161,38.5183Z" fill="#d06b00"/><path d="M58.9713,36.5678v-7.977a.9971.9971,0,0,1,.9971-.9971h0a.9971.9971,0,0,1,.9971.9971v7.977a.9971.9971,0,0,1-.9971.9971h0A.9971.9971,0,0,1,58.9713,36.5678Z" fill="#d06b00"/></g></svg>
