<svg id="Layer_1" data-name="Layer 1" xmlns="http://www.w3.org/2000/svg" width="109.332mm" height="151.0239mm" viewBox="0 0 309.9174 428.0992"><title>paddy</title><path d="M189.097,346.9229a201.1713,201.1713,0,0,1-7.3315-49.1715c-3.44-23.6911-5.3459-48.4718,2.6192-71.0474s28.1547-42.38,52.0877-42.9408c12.7047-.2976,26.25,5.7768,31.5587,17.3229" fill="none" stroke="#76b82a" stroke-miterlimit="10" stroke-width="3"/><path d="M55.6236,223.2192c6.1454-21.2606,32.5275-32.145,53.8041-26.0552a53.3531,53.3531,0,0,1,28.6067,20.2851c6.9462,9.8137,10.3321,21.6527,13.2341,33.32a580.6759,580.6759,0,0,1,14.9622,89.63c.479,5.4888-1.768,11.9424-1.768,17.452" fill="none" stroke="#76b82a" stroke-miterlimit="10" stroke-width="3"/><path d="M167.9041,246.2669c-.3783-11.2327-.7484-22.5772,1.3717-33.6145,3.209-16.7062,11.9369-31.7978,21.2578-46.0287a15.95,15.95,0,0,1,3.8773-4.5321,15.405,15.405,0,0,1,5.5886-2.0933,154.011,154.011,0,0,1,45.4932-3.3075" fill="none" stroke="#76b82a" stroke-miterlimit="10" stroke-width="3"/><path d="M153.5133,203.3464c-2.7167-9.0228-9.0214-16.4527-15.1657-23.5969-4.6741-5.4347-9.4054-10.9226-15.211-15.1272-10.5147-7.6151-23.7491-10.4426-36.68-11.6007-9.824-.88-20.0886-.8328-29.0782,3.2258-13.2755,5.9935-21.3056,19.4414-28.5013,32.1057" fill="none" stroke="#76b82a" stroke-miterlimit="10" stroke-width="3"/><path d="M161.4612,176.8007c-.86-14.8387-1.4071-30.89,6.9193-43.2022a47.46,47.46,0,0,1,11.9451-11.7142c23.1871-16.582,55.8644-18.7207,81.015-5.3024,6.5721,3.5063,13.2489,9.0716,13.4285,16.5184" fill="none" stroke="#76b82a" stroke-miterlimit="10" stroke-width="3"/><path d="M147.68,161.21a66.0666,66.0666,0,0,0-14.5349-28.3158c-4.4333-5.0677-9.8779-9.5693-16.388-11.2881-3.3154-.8753-6.775-.9961-10.18-1.4023-6.8447-.8166-13.5026-2.794-20.3253-3.7778a71.9152,71.9152,0,0,0-60.3206,20.1986" fill="none" stroke="#ffdf23" stroke-miterlimit="10" stroke-width="3"/><path d="M153.9522,132.203A71.4478,71.4478,0,0,1,174.65,73.99a49.6282,49.6282,0,0,1,9.1963-7.2518,38.4575,38.4575,0,0,1,17.8205-5.3579" fill="none" stroke="#ffdf23" stroke-miterlimit="10" stroke-width="3"/><path d="M143.4925,109.0776c-3.0962-9.6547-7.8428-19.1273-15.6452-25.6019s-19.13-9.3775-28.3855-5.2386" fill="none" stroke="#ffdf23" stroke-miterlimit="10" stroke-width="3"/><path d="M170.8894,105.8142c-.11-3.3659,2.3289-6.2378,4.7994-8.5265A63.5689,63.5689,0,0,1,230.69,81.9048" fill="none" stroke="#ffdf23" stroke-miterlimit="10" stroke-width="3"/><path d="M222.0583,371.3381c-3.0322.7261-6.1733,1.456-9.2387.8862s-6.0514-2.8081-6.4574-5.8995c-.3144-2.3935.9062-4.9792-.13-7.16-1.4257-3.0007-5.6244-2.8146-8.9456-3.0769-9.9012-.7869-16.3382-12.4432-26.1894-10.0443a7.1315,7.1315,0,0,1,.2254-3.2319c4.7466,2.4623,7.6473,9.8493,8.56,15.0162.82,4.6384.1878,7.1635-1.4492,11.3309-1.2252,3.119-3.8373,2.8949-3.9295,6.8165-.0465,1.9772,3.615,3.3772,2.19,5.7545-7.8051.5672-14.469,7.98-14.2048,15.8013" fill="none" stroke="#76b82a" stroke-miterlimit="10" stroke-width="3"/><path d="M127.3861,384.6075a30.3637,30.3637,0,0,1,13.5507-3.4835,21.7127,21.7127,0,0,0,5.459-.3952c5.7349-1.5977,7.7742-8.68,7.899-14.6319.0311-1.4839.0435-3.0921.95-4.2675,2.191-2.8419,8.2791-1.6612,8.8131-5.21.095-.6313-.0206-1.3689.426-1.8251s1.4623.3121.9143.64" fill="none" stroke="#76b82a" stroke-miterlimit="10" stroke-width="3"/><path d="M206.6546,385.9453c-2.6524.194-3.9409-3.2257-3.9166-5.8851s.2522-5.8727-1.9413-7.3764a11.5813,11.5813,0,0,0-2.9023-1.0969,9.1331,9.1331,0,0,1-5.1256-11.9243,10.8444,10.8444,0,0,1-11.8967-5.7505" fill="none" stroke="#76b82a" stroke-miterlimit="10" stroke-width="3"/><path d="M143.7913,394.1254a10.0027,10.0027,0,0,0,6.5882-8.8683,4.3853,4.3853,0,0,1,.5858-2.7639c1.1259-1.323,3.2666-.402,4.9878-.6371,3.5983-.4915,4.105-5.37,4.2849-8.9975a3.0124,3.0124,0,0,1,.5121-1.82c.7612-.9117,2.2184-.6919,3.2877-1.2088a5.0415,5.0415,0,0,0,2.0135-2.4539l4.3324-8.4953" fill="none" stroke="#76b82a" stroke-miterlimit="10" stroke-width="3"/><path d="M98.8564,72.9982c-1.31,2.26.8192,5.3457,3.4087,5.6934s5.0794-1.2875,6.7154-3.3245l.2405,3.0311a6.4726,6.4726,0,0,1,5.4325-.3215c.0687,1.9588,2.7328,2.5524,4.6663,2.2309s4.2854-.8306,5.5557.6621a5.8536,5.8536,0,0,1,.9093,1.9817,15.6488,15.6488,0,0,0,2.8717,5.064c1.8872,2.2247,4.9523,3.974,7.6577,2.8822l-2.6938,9.7336a15.7229,15.7229,0,0,1,7.103,1.2792c-.6123,1.866-1.2307,3.855-.7538,5.76s2.5226,3.5536,4.3594,2.8587a1.9177,1.9177,0,0,1-.45,2.6787" fill="none" stroke="#ffdf23" stroke-miterlimit="10" stroke-width="3"/><path d="M206.6219,62.7832a9.554,9.554,0,0,1-4.8587-3.815c.9965,2.24-1.427,4.7865-3.8766,4.8932s-4.6614-1.3477-6.6781-2.7424a3.2094,3.2094,0,0,0,.6986,2.912,16.5316,16.5316,0,0,1-8.8949-.6588,9.4056,9.4056,0,0,1,1.1519,6.7464l-7.8925.29a5.7852,5.7852,0,0,1,2.1486,5.4826l-11.43.3843c2.4118,1.1839,5.1892,4.1115,3.2726,5.9944a5.0594,5.0594,0,0,1-2.2579.99,13.4276,13.4276,0,0,0-5.8933,3.527,9.4485,9.4485,0,0,1,.582,5.6285,15.234,15.234,0,0,1-5.6044,1.1572,8.7094,8.7094,0,0,1,3.7763,7.5419,3.9626,3.9626,0,0,0-5.5183,1.6509,7.6293,7.6293,0,0,0-.4233,3.2161l.122,9.7133c.0345,2.7448-.3892,6.1819-2.9873,7.0678a6.2746,6.2746,0,0,1,2.093,8.9565" fill="none" stroke="#ffdf23" stroke-miterlimit="10" stroke-width="3"/><path d="M28.0992,135.537l.4146-7.4726a13.86,13.86,0,0,0,6.3139,6.0311,15.2118,15.2118,0,0,1,3.7409-10.3972,8.9658,8.9658,0,0,0,3.4183,4.3845,18.7446,18.7446,0,0,1,3.2438-6.6941l4.1225,5.0781a12.4571,12.4571,0,0,1,3.5909-6.8345l2.4033,3.8979a91.4209,91.4209,0,0,0,8.06-7.8367l2.4317,6.0081c1.8274-2.0642,4.3478-3.7652,7.1039-3.6967s5.5041,2.5121,5.1075,5.24a18.9348,18.9348,0,0,1,9.36-7.62l.3256,4.8768a14.1888,14.1888,0,0,0,9.5887-1.342L99.5,122.3367l5.8,1.2243c4.479.9455,9.2417,1.8744,13.54.2988l.3045,5.1245c2.7241.2848,5.5618.6081,7.8625,2.0941s3.8538,4.5163,2.7606,7.0276c6.7034-1.0905,10.9478,6.8185,13.0154,13.2876l4.5965,14.3813" fill="none" stroke="#ffdf23" stroke-miterlimit="10" stroke-width="3"/><path d="M225.7637,84.2345a12.86,12.86,0,0,0-3.6914-4.7689,9.9983,9.9983,0,0,0-1.7092,5.017,32.0287,32.0287,0,0,1-8.1588-5.4155,7.1107,7.1107,0,0,1-9.7864,3.6879,4.6525,4.6525,0,0,1-4.6561,5.77c-2.2805-.2325-4.9822-2.0537-6.502-.3377-.5205.5877-.66,1.4371-1.17,2.0336-1.9074,2.2294-5.3881-1.2393-8.2853-.7757,1.5427,1.09.7718,3.7678-.91,4.6283s-3.702.4839-5.5488.0874c1.292.8054.8225,2.9893-.4743,3.7869s-2.9428.6328-4.4531.4412a22.056,22.056,0,0,0,1.5062,5.8521,2.0942,2.0942,0,0,1-2.304.78l-.6108,3.3078" fill="none" stroke="#ffdf23" stroke-miterlimit="10" stroke-width="3"/></svg>