<svg id="Layer_1" data-name="Layer 1" xmlns="http://www.w3.org/2000/svg" viewBox="0 0 600 536.13"><defs><style>.cls-1{fill:#006838;}.cls-2{fill:#8b5e3c;}</style></defs><title>chacra</title><g id="nEew9e"><path class="cls-1" d="M225,280.49c.59-1.56,1.14-2.89,1.6-4.25a7.46,7.46,0,0,0,.35-2.08c.07-2.13,1.61-3.47,2.63-5.09a1.11,1.11,0,0,0,.23-.43c.25-3.26,1.76-6.06,3.22-8.88.26-.5,0-1.22.17-1.8.5-2,.49-4.33,2.72-5.54.18-.1.16-.58.23-.88-.31-.07-.69-.3-.9-.19a7.13,7.13,0,0,0-2.37,1.54c-1.23,1.6-2.31,1.42-4,.54-3.18-1.68-6.55-3-9.81-4.51a33.55,33.55,0,0,1-3.9-2.21c-.39-.25-.57-.84-.72-1.07-1.68-1-3.28-1.92-4.85-2.89s-2.88-1.85-4.33-2.75c-1.25-.78-2.51-1.55-3.78-2.28-1.53-.87-3.09-1.69-4.63-2.54a1.41,1.41,0,0,1-.42-.29c-3.18-3.83-7.42-6.37-11.35-9.28-1.21-.9-2.48-1.72-3.66-2.66-1.85-1.47-3.6-3.06-5.46-4.51-1.12-.88-2.37-1.58-3.54-2.39-1.35-.93-2.69-1.87-4-2.86-2.41-1.83-4.83-3.67-7.19-5.57s-5.34-2.39-7.55-4.57c-1.52-1.5-3.83-2.21-5.78-3.28-2.3-1.27-4.54-2.65-6.91-3.78-1.65-.79-3.48-1.2-5.19-1.88-.71-.28-1.29-.88-2-1.23a12.14,12.14,0,0,0-2.11-.74c-.37-.1-.79,0-1.16-.11-2.53-.71-5.08-1.37-7.56-2.22-1.62-.56-3.09-1.65-4.73-2.08-1.43-.37-3-.08-4.52-.21a17.25,17.25,0,0,1-2.54-.63,18,18,0,0,0-2.11-.47,5.6,5.6,0,0,1-4.6-5c0-1-.52-2.1.58-2.94a1.55,1.55,0,0,0-.45-1.14c-2.64-1.3-5.24-2.83-8.39-2.17-.25.05-.54-.12-.82-.16-1.48-.22-2.95-.53-4.43-.63-4.5-.31-9-.3-13.48-.93-1.25-.18-2.15.57-3.26.27a21.33,21.33,0,0,0-4.22-.92,35.07,35.07,0,0,0-4.64.33c-2.91.22-5.82.4-8.72.65a10,10,0,0,0-1.94.5,12.52,12.52,0,0,1-2,.64c-2.48.28-5,.46-7.45.7a14.12,14.12,0,0,0-3.93,1.86,19.51,19.51,0,0,1-2.38.84c-2.2,1-4.36,2.1-6.56,3.1-1,.44-2,.73-3,1.1-.3.11-.73.17-.86.39-1.7,2.94-4.67,4.38-7.26,6.27-1.27.92-2.39,2-3.63,3a29.73,29.73,0,0,1-2.57,1.58c-.6,2.21-2.56,3.85-4.72,5.31a4,4,0,0,0-1.1.78c-1.46,2.07-3.69,1.77-5.74,1.87C1.94,201.72-.3,199,0,197.34a4.88,4.88,0,0,1,1.63-3.5,8.32,8.32,0,0,0,1.62-2.23c1.23-1.93,2.42-3.89,3.64-5.83a2.49,2.49,0,0,1,.46-.49c2.91-2.63,4.93-6,7.66-8.81,1-1,2-2,3-3a1.33,1.33,0,0,0,.4-.64,7.29,7.29,0,0,1,2.54-4.2c.53-.52.87-2.09.51-2.51-1.54-1.79-.34-3.23.45-4.54a62.73,62.73,0,0,1,4-5.31c1.48-2,2.87-4,4.47-5.88a44.82,44.82,0,0,1,5.46-5.55,63.52,63.52,0,0,1,7.48-5.1c2.26-1.35,4.69-2.42,7-3.61,1.82-.92,3.62-1.88,5.47-2.71a11.9,11.9,0,0,1,2.45-.52,4.19,4.19,0,0,0,1.1-.27c2-1,4-2.16,6-3.2,3.3-1.7,6.62-3.37,9.93-5a4.66,4.66,0,0,1,1.07-.47,37.5,37.5,0,0,0,5.13-1.1c1.64-.61,3.07-1.76,4.67-2.52a47.44,47.44,0,0,1,13.32-3.8,79.54,79.54,0,0,1,10.1-.51c3.85-.09,7.7-.09,11.55-.1,2.79,0,5.72.57,8.35-.08,4.19-1,8.43-.83,12.63-1.37a23.6,23.6,0,0,1,7.74,0c4.75,1,9.55.74,14.32,1.09,2.49.18,4.6,1.12,6.87,1.85,2.9.93,5.87,1.63,8.8,2.47.7.2,1.33.6,2,.82,3.3,1.05,6.63,2,9.91,3.13,2.91,1,5.76,2.14,8.64,3.21.32.12.65.36.95.33,2.26-.25,4,1.17,5.87,1.94.49.2.83.74,1.26,1.1.2.18.42.42.66.46,3.2.53,5.71,2.4,8.22,4.25,1.62,1.19,3.08,2.6,4.69,3.8.55.41,1.39.39,2,.74,1.16.65,2.24,1.45,3.38,2.15a10,10,0,0,0,1.24.57c.94-2.91,1.84-5.64,2.69-8.38.45-1.46.48-3.19,1.31-4.38,1.76-2.52,2.22-5.18,2.54-8.17a23.63,23.63,0,0,1,3-8.1,28.56,28.56,0,0,0,2.87-7.85c.33-1.67.46-3.37,2.11-4.66.84-.66.87-2.4,1.16-3.68.59-2.6,1-5.25,1.67-7.82A101.83,101.83,0,0,1,249,79a53,53,0,0,1,3.81-7.35,63.38,63.38,0,0,1,4-6.24c.52-.69,1.59-1,2.42-1.43.14-.07.37,0,.47-.1,1.76-1.72,3.52-3.44,5.24-5.19.51-.51.81-1.3,1.39-1.65,1.34-.81,2.8-1.42,4.21-2.12a1.93,1.93,0,0,0,.55-.38c2.11-2.26,5-2.8,7.81-3.33,1.17-.22,2.36-.33,3.89-.54.28-1.18,1.84-1.37,3.22-1.67,1.89-.41,3.83-.55,5.73-.93,1.18-.24,2.29-.79,3.47-1.09,2.33-.6,4.69-1.06,7-1.7,2.56-.71,5-1.9,7.64-2.23A16.41,16.41,0,0,0,315,41.55c3.19-1.59,6.87-.74,9.92-2.56.53-.31,1.34-.09,2-.24,4.51-1,9-2.15,13.54-3a18.74,18.74,0,0,0,5.65-2.52c2.72-1.52,4.77-1.63,7,.4.89.83,1.59,1.89,2.54,2.65a2.87,2.87,0,0,0,1.83.25c3.24-.26,6.48-.67,9.73-.82a30.58,30.58,0,0,1,5.32.42c2.17.28,4.35.62,6.49,1.08.87.19,1.85,1.31,2.44,1.09,1.78-.68,2,.62,2.87,1.48a8.76,8.76,0,0,0,3.69,1.7c1.29.37,2.45.67,2.72,2.22a1.19,1.19,0,0,0,.34.55c2.41,2.49,2.57,3.56.95,6.64-.1.19-.17.39-.48.18-1.06.38-2.11.79-3.18,1.13a7.48,7.48,0,0,1-2.54.58,5.67,5.67,0,0,0-3.59,1,4.67,4.67,0,0,1-1.43.41l-5.07,1.2c-.15,0-.27.25-.41.27-3.93.58-6.36,3.46-9.14,5.85a29.42,29.42,0,0,1-3.05,1.78c-.33.22-.44.76-.65,1.15-.41.77-.63,1.86-1.27,2.24a5.49,5.49,0,0,0-2.71,4.45c-.14,1.05-.93,2-1.36,3-.94,2.23-2.21,4.35-2.13,6.92,0,.58-.53,1.17-.64,1.39a14.49,14.49,0,0,1-.06,3.73,31.81,31.81,0,0,1-2,4.3,1,1,0,0,0-.13.62c.69,2.48-.73,4.65-1,7a10.59,10.59,0,0,1-.64,2c1.08,2.25-.31,4.25-.72,6.32-.32,1.65-.77,3.27-1.2,4.9a11.86,11.86,0,0,1-1.13,2.89c.1,1.14.88,2.4-.58,3.24a6.56,6.56,0,0,1,.41,2.11c-.36,2.25-.88,4.47-1.32,6.71-.28,1.44-.53,2.88-.78,4.32-.6,3.45-1.16,6.91-1.83,10.34-.09.47-.74.83-1.06,1.16a6.55,6.55,0,0,1,.67,2.39c-.25,2.44-.84,4.84-1.14,7.28a63.61,63.61,0,0,1-2.13,11.38,34,34,0,0,0-.75,4.55,5.42,5.42,0,0,0,1.91-.53c2.51-1.81,4.92-3.76,7.41-5.58a14.85,14.85,0,0,1,2.55-1.3c2.59-1.2,5.2-2.35,7.77-3.6a32.42,32.42,0,0,0,3.73-2.19c2.48-1.65,4.75-3.69,7.4-5s5.4-3.12,8.75-3.43c1.69-.16,4,.32,5.39-1.61.32-.45,1.24-.48,1.89-.67,1.9-.56,3.83-1,5.69-1.67,2.1-.74,4.08-1.91,6.22-2.42,3-.71,5.65-2.46,8.66-2.89,2.54-.36,4.73-1.44,7.06-2.28a23.6,23.6,0,0,1,4.79-.71c3.1-.42,6.18-1,9.29-1.22,3.59-.26,7.2-.2,10.8-.29,2-.05,3.95-.27,5.91-.17s3.86.48,5.8.74,3.83.46,5.74.76a9.81,9.81,0,0,1,1.82.63,5.23,5.23,0,0,0,1.35.51,63.11,63.11,0,0,1,6.78.33c3.83.65,7.6,1.64,11.41,2.46,2,.43,4.07.65,6,1.23,2.41.71,4.73,1.67,7.09,2.55,2.52.94,5.06,1.83,7.53,2.88s4.87,2.53,7.44,3.42c2.75,1,4.34,3.36,6.73,4.68a34,34,0,0,0,3.71,1.55c4,1.63,7.22,4.5,10.74,6.88,1.32.89,2.87,1.45,4.22,2.31s2.61,2.09,4,2.94c2.27,1.37,4.65,2.56,7,3.82,1.88,1,3.79,2,5.64,3.08.39.23.48.9.83,1.24a7.51,7.51,0,0,0,1.43,1c.28.17.67.19.89.41a32.14,32.14,0,0,0,3.66,3.62,56.38,56.38,0,0,0,7.91,4.78c1.77.84,3.9.9,5.83,1.44s3.82,1.28,5.75,1.87c1.18.36,2.42.53,3.6.89q5.23,1.57,10.43,3.23a1.59,1.59,0,0,1,1,.8c.38,1.35,1.59,1.35,2.47,1.32a10.79,10.79,0,0,1,6.39,1.63,12,12,0,0,1,2.41,2.68,1.36,1.36,0,0,1,.21.8c0,1.5-2.72,4.58-4.2,4.5-2.37-.13-4.09,1.17-5.91,2.31-2.45,1.53-4.93,3-7.33,4.6-1,.65-1.72,1.63-2.66,2.35-.59.45-1.39.62-2,1a17.9,17.9,0,0,1-2.39,1.67c-1.5.61-3.12.92-4.65,1.46a37.65,37.65,0,0,0-4.24,1.8,41.34,41.34,0,0,1-3.84,2.19,27.74,27.74,0,0,1-4.2.76,12.4,12.4,0,0,0-1.93.65c-1.17.45-2.31,1-3.51,1.35-2.52.69-5.08,1.25-7.62,1.87a47.35,47.35,0,0,0-5.76,1.49c-1.13.43-2,1.32-3.42,1.27a19.32,19.32,0,0,0-4.09.6,2.21,2.21,0,0,0-.78.52c-.3.23-.55.63-.87.69-2.66.5-5.34.92-7.58,2.64a1,1,0,0,1-.66.14c-3.32-.36-6.3,1.36-9.58,1.45s-6.34.82-9.52,1.14c-4,.4-7.94.68-11.92,1-2.76.22-5.51.48-8.27.64s-5.24.19-7.86.27a2.14,2.14,0,0,1-.84,0c-3.59-1.49-7.15.13-10.72.16s-7.35.3-11,.69c-3.37.36-6.71,1.07-10.06,1.56s-6.8.81-10.17,1.4c-2.16.38-4.24,1.16-6.37,1.67-1.25.3-2.57.32-3.81.66a61.42,61.42,0,0,0-12.62,4.41c-2.11,1.1-4.46,1.75-6.69,2.64-2.54,1-5,2.16-7.6,3.09-2.82,1-5.72,1.82-8.54,2.84a52.22,52.22,0,0,0-5.14,2.25c-2.15,1-4.26,2.17-6.36,3.29-1.08.57-2.1,1.25-3.17,1.84a34.91,34.91,0,0,1-4,2,2.81,2.81,0,0,1-3.59-3.07c.21-1.45.37-2.91.59-4.69a13.36,13.36,0,0,0-2.84.85,79.57,79.57,0,0,0-7.87,4.65c-2.85,2-5.47,4.36-8.2,6.55a4.55,4.55,0,0,1-.8.41c-.58.3-1.16.59-1.73.89L341,272.49a5.68,5.68,0,0,0,.83.34c2.79.64,2.79.63,3,3.38.09,1.19-2,2.65-3.47,2.18s-2.59.19-3.89.17c-1.12,0-2.25.18-3.36.08-1.9-.18-2.4,0-2.57,1.93-.23,2.71-.31,5.42-.45,8.14,0,.11.07.27,0,.33-1.91,2.43-1.22,5.78-3,8.25a2.39,2.39,0,0,1-1,.84c-1.65.65-3.33,1.24-5,1.83-.84.29-1.39.59-1.51,1.71a14.68,14.68,0,0,1-1.22,4.67,24.43,24.43,0,0,0-2.21,11.32,18.38,18.38,0,0,0,1.16,4.22,2,2,0,0,1,.17.81c-.56,3.12-1.1,6.25-1.76,9.35a2.78,2.78,0,0,1-1.15,1.75c-1.82.93-1.66,2.49-1,3.74,1.46,2.8,1.15,5.79,1.43,8.72.13,1.4.37,2.79.43,4.19,0,1-.22,2-.2,3,.05,2.61.2,5.21.28,7.82a23.55,23.55,0,0,0,0,3.36c.41,2.29-.76,4.31-.91,6.48-.07,1.08.27,2.19.24,3.28a4.86,4.86,0,0,1-.59,2.26c-1.54,2.58-3.38,5-4.71,7.67a9,9,0,0,0-.5,4.61c.24,2.44.86,4.85,1.27,7.28a2.12,2.12,0,0,1-.12,1.44c-1.66,2.2,0,4.32.08,6.46s.51,4.14.5,6.21a31.73,31.73,0,0,1-.77,4.22,39.82,39.82,0,0,1-.49,4.53c-.76,2.86-1,6.07-4,7.69.06.6.33,1.26.11,1.54-1.93,2.51-.61,5.2-.55,7.81a33.6,33.6,0,0,0,0,4.13c.41,2.77,1.11,5.49,1.53,8.25.3,2,.39,4,.5,6,.15,2.64.14,5.29.38,7.91.26,2.87.65,5.73,1.12,8.57a22.73,22.73,0,0,0,1.07,2.87,47,47,0,0,1,1.84,6.43,94.78,94.78,0,0,1,1.07,10.58,5.07,5.07,0,0,1-1.31,3.22c-1.58,1.76-1.5,3.58-1.28,5.77.44,4.39,2.26,8.29,3.9,12.25a5.67,5.67,0,0,1,.55,3.17c-.35,2.6,1,4.9,1.49,7.35a10.8,10.8,0,0,1-.51,4.78c-.47,1.71-1.36,3.3-2,5-.87,2.27-1.5,4.65-2.56,6.82a37.9,37.9,0,0,1-3.41,5,.81.81,0,0,1-.72.25c-1.6-.69-1.59.46-2.2,1.48a14.49,14.49,0,0,1-3.65,3.8c-2.55,2-5.75,1.91-8.76,2.27-2.55.3-5,1.93-5.85,3.82a22.8,22.8,0,0,1-2.69,1.55c-3.08,1.21-6.12,2.71-9.33,3.4a26.19,26.19,0,0,1-9.12.35c-2.19-.32-4.73-.69-6.4-2.77a2.26,2.26,0,0,0-2.06-.24,24.36,24.36,0,0,1-10.13,1.65,6.93,6.93,0,0,1-2.45-.83c-1.76-.77-3.47-1.63-5.26-2.33-.26-.1-1,.38-1.16.76a30.85,30.85,0,0,1-1.23,3c-1.9,2.87-3.72,5.75-7.54,6.63-3.34.77-6.66,1.48-10.08,1a32.59,32.59,0,0,1-6.51-1.4c-1.48-.53-2.69-1.79-4.12-2.56a1.74,1.74,0,0,0-1.62.34c-1.45,1.63-2.85,2.74-5.37,2.55a14.61,14.61,0,0,1-10.84-5.93,31.86,31.86,0,0,1-2.83-3.69,15.88,15.88,0,0,1-1.33-3.74,11.87,11.87,0,0,1-.6-3.35c.07-2.9.4-5.79.49-8.69.05-1.59-.3-3.19-.24-4.78a41.51,41.51,0,0,1,.64-4.77c.61-3.9,1.25-7.8,1.87-11.7.24-1.48.38-3,.71-4.45a3.3,3.3,0,0,1,1-1.3c1.34-1.38,2.41-2.94,2.06-4.91a8.4,8.4,0,0,0-1.57-3.17,5.75,5.75,0,0,1-.88-4.71c.39-1.84,1.24-3.59,1.7-5.42.94-3.72,1.81-7.45,2.6-11.21a69.8,69.8,0,0,0,1.26-7.84,51.45,51.45,0,0,0,0-6.57c-.11-3-.47-6-.42-8.93,0-2.32.61-4.63.85-7a31.57,31.57,0,0,0,.38-5.93,51.39,51.39,0,0,0-1.35-6.58c-.07-.32-.25-.61-.35-.92-.58-1.87-1.18-3.73-1.72-5.61a19.56,19.56,0,0,1-.74-3.33,1.68,1.68,0,0,1,.73-1.32c2.58-1.42,3-3.72,2.94-6.37-.06-5-.09-10.07,1.84-14.89.88-2.2,1.86-4.57,1.85-6.86,0-4.08,1.93-7.78,1.71-11.87-.1-1.81.65-3.66,1-5.5s.66-3.82,1-5.74a1.3,1.3,0,0,0-.16-.81c-1.43-2.38-.41-4.78,0-7.11.7-3.72,1.64-7.4,2.51-11.08.7-3,1.46-5.95,2.19-8.93.29-1.21.49-2.44.84-3.63a101.37,101.37,0,0,1,3-9.78c1.7-4.16,2-8.44,2.31-12.83,0-.77-.05-2.55,1.82-3.12,1.42-.44,1.4-2.34,1.43-3.8,0-1-.51-2.16.68-2.94.12-.08,0-.51,0-.77-.19-1.46-.48-2.92-.57-4.39-.18-3.18-.25-6.37-.36-9.55a5.09,5.09,0,0,1,0-.77q.41-3.5.83-7a11.92,11.92,0,0,1,.4-2.79c.48-1.25-.7-2.9.95-3.84a3.35,3.35,0,0,0-.21-.49,4.39,4.39,0,0,1,2.51-5.82A10.06,10.06,0,0,1,225,280.49ZM253.51,90.13c.19.82.65,1.61.46,2.17-.79,2.28-1.78,4.5-2.7,6.73a24.07,24.07,0,0,0-1.32,3.28c-.79,3.22-1.37,6.48-2.2,9.69-.38,1.45-1.21,2.77-1.73,4.19-.25.67-.13,1.48-.39,2.14-.79,2-1.7,4-2.53,5.94-.57,1.36-1,2.76-1.64,4.1s-1.38,2.54-2,3.85c-.29.62-.33,1.37-.61,2-.69,1.58-1.6,3.07-2.14,4.69a35.63,35.63,0,0,0-1.47,6,14.61,14.61,0,0,0,.18,4,9.36,9.36,0,0,0,.9,2.11,6,6,0,0,1,1.2.83q3.74,3.79,7.4,7.65c1,1,1.91,2.07,2.77,3.18,1,1.26,1.05,3.12,2.83,3.92.53.24.66,1.29,1.08,1.9,1.21,1.76,1.28,4.29,3,5.09.39,1.41.61,2.45,1,3.43s1,1.72,1.29,2.63c.47,1.31.49,2.89,1.24,4a27.36,27.36,0,0,1,3.88,8.15,3.94,3.94,0,0,1-5,4.91c-1.5-.51-3.3-1.11-3.48-3.25,0-.25-.3-.47-.37-.73-.51-1.73-1-3.47-1.26-4.37l-3.52-8.13c-.32-.69-.72-1.36-1.08-2.06-.73-1.45-1.35-3-2.18-4.34-.63-1-1.58-1.89-2.26-2.91-1.74-2.58-3.27-5.31-5.16-7.77a39.22,39.22,0,0,0-4.9-5c-1.72-1.57-3-3.51-5.07-4.85a36.74,36.74,0,0,1-4-3.56,53.91,53.91,0,0,0-9.36-6.41c-.42-.24-.78-.6-1.18-.89-2-1.42-3.94-2.85-5.94-4.23a16.54,16.54,0,0,0-1.9-1c-2.06-1.06-4.07-2.26-6.21-3.13-1.61-.65-3.42-.75-5.09-1.28-3.41-1.08-6.76-2.32-10.16-3.44-2.36-.78-4.75-1.45-7.12-2.2a39.59,39.59,0,0,0-3.79-1.27c-2.7-.56-5.46-.87-8.15-1.45-1.57-.34-3-1.32-4.61-1.5a74.26,74.26,0,0,0-10.8-.65c-3.73.12-7.4-1-11.17-.21-2.11.45-4.39,0-6.53.36-3.57.57-7,1.81-10.75,1.27a66,66,0,0,0-9.72-.15c-3,0-6.18-1-9,1-.11.08-.33,0-.5,0A38,38,0,0,0,96,125c-2,.47-4,.52-5.92,1.53-2.56,1.32-5.53,2.15-8.54.92-.19.43-.25,1-.57,1.23-1.72,1-3.48,2-5.29,2.81s-3.74,1.43-5.56,2.26c-2.28,1-4,3.23-6.88,3-.19,0-.4.18-.6.29-1.54.81-3.05,1.66-4.61,2.43s-3.29,1.57-5,2.3c-2,.88-4.09,1.64-6.08,2.56A13.69,13.69,0,0,0,44.56,146c-1.09.84-2.15,1.72-3.21,2.6-1.55,1.28-4,1.47-4.63,3.88-.07.27-.49.45-.72.69l-4.54,4.9.28.4a13.44,13.44,0,0,0,2.52-.68,1.63,1.63,0,0,1,2.45,1,3.21,3.21,0,0,1-.62,2.49c-.54.71-1.79.92-2.25,1.64-1.31,2.07-3.82,2.81-5,5.09-1,1.82-2.81,3.16-4.25,4.73a1.68,1.68,0,0,0-.3.59c-.75,2.17-2.76,3.76-2.79,6.31,0,.56-.9,1.29-1.55,1.61a6.6,6.6,0,0,0-3.14,5c1.45-1,2.91-1.91,4.27-3,2-1.54,3.81-3.47,6-4.7,3.76-2.12,7.74-3.87,11.66-5.68a33.69,33.69,0,0,1,5.84-2.24,63,63,0,0,1,6.68-1c2.63-.36,5.24-.83,7.88-1.07s5.3-.22,8-.38c2-.11,4-.48,6-.44,3.29.07,6.58.48,9.87.54,2,0,4-.49,6.06-.47,2.66,0,5.32.37,8,.5,1.94.09,3.91-.15,5.82.12a43.43,43.43,0,0,1,7.13,1.61c3.15,1,6.22,2.25,9.32,3.43,1.09.42,2.13,1,3.22,1.4,2,.8,4,1.54,6,2.33.85.34,1.54,1.46,2.66.41.11-.11.93.37,1.29.72,1,1,1.84,2.31,3,3a11.87,11.87,0,0,0,7,1.61c1.1-.07,2.47-.37,2.87.85,7.75-.09,14.39,2.56,20.83,6.7a9,9,0,0,0,.74-2.22c.09-2.7,1.08-3.33,3.24-2.29.32,1.21.53,2.21.86,3.16s.78,1.93,1,2.51a12.11,12.11,0,0,1,2.9,1.18c1.68,1.33,3.22,2.85,4.82,4.29,2.62,2.36,5.21,4.74,7.87,7,1.17,1,2.5,1.84,3.69,2.83,2,1.63,3.89,3.35,5.88,5,.95.77,2.09,1.3,3,2.11,2,1.81,3.87,3.86,6,5.55,2.5,2,5.19,3.73,7.87,5.47,3,1.93,6,3.78,9,5.59,2.26,1.35,4.58,2.59,6.87,3.88,1.11.62,2.19,1.3,3.34,1.86,3,1.45,6,2.9,7.78,5.9a1.57,1.57,0,0,0,1.12.68c.27,0,.66-.53.78-.89a1.86,1.86,0,0,1,2.73-1.28c.49.23,1,.45,1.51.64,2.5.92,3.18,3.08,1.48,5.15-.66.8-1.79,1.22-2.39,2.05a42.74,42.74,0,0,0-2.45,4.32,32.89,32.89,0,0,1,3.4,1.17c.79.36,1.38,1.16,2.18,1.51a34.32,34.32,0,0,0,4.69,1.69c2.39.66,4.87.91,7.29,1.48,3.36.79,7,.59,10.47.7a6.07,6.07,0,0,1,4.22,1.36,3.51,3.51,0,0,1,.66,2.26,1.52,1.52,0,0,1-.94,1.14,26.55,26.55,0,0,1-5,.57c-3.38,0-6.77-.19-10.13-.48a39.85,39.85,0,0,1-8-1.2c-3.79-1.14-7.44-2.77-11.17-4.14-.45-.17-1.39-.14-1.5.09a32.53,32.53,0,0,0-1.79,4.33c-.45,1.35-.55,2.83-1.1,4.13-1.34,3.19-2.87,6.3-4.28,9.46-.76,1.7-1.44,3.44-2.15,5.17,1.29.11,2.46-.13,3.2.33,1.66,1,3.07.6,4.61-.1a3.14,3.14,0,0,1,1.95-.4c1,.3,1.77,1.16,2.74,1.41,3,.8,3.75,1.63,3.5,4.66l6.33-1.47a18.33,18.33,0,0,1,1.81-2.81c1.9-2,4.24-1.64,6.22-.38.83.53,1.2,2.15,1.33,3.33.18,1.72,1.14,2.67,2.89,2.21,1.41-.37,2.75-1,4.17-1.28,2.13-.44,4.29-.73,6.45-1a26.17,26.17,0,0,1,3.06,0c1.49,2.72,2.51,5.58.29,9.11,1.23.79,2.45,1.69,3.77,2.38a5.56,5.56,0,0,0,6-1.18,7.82,7.82,0,0,1,10-1.73l2.88-2a10.45,10.45,0,0,0,1.86-1.3c1.59-1.73,3.13-3.51,4.63-5.31a3.64,3.64,0,0,1,5.1-.82c1.62,1.08,2,2.68,2.18,4.48a2.19,2.19,0,0,0,.54,1.28c.16.17.76.08,1.05-.08a39.76,39.76,0,0,0,3.42-2c.54-.37,1.21-.87,1.35-1.43.48-1.93,1.2-3.86.65-5.91a1.27,1.27,0,0,1,0-.82c1.08-1.91-.63-2.07-1.63-2.41-1.58-.53-3.24-.81-4.89-1.2l-.16-.89c-.65-3.69-.65-3.67,3.19-4.37,1.32-.24,2.47-.63,2.71-2.32a2.2,2.2,0,0,1,1.43-1.44c2.68-.51,5.33-.52,7.51,1.95,4.36-3.8,10-5.35,14.29-9.17a59.42,59.42,0,0,1,6.2-4.78,45.14,45.14,0,0,1,5.15-2.79,18.6,18.6,0,0,1,2.33-.84c2.69-.92,5.39-1.85,8.09-2.76,1.33-.45,2.73-.73,4-1.29,3.47-1.5,6.87-3.18,10.36-4.63a12.53,12.53,0,0,1,7.8-.74,6.38,6.38,0,0,1,3.09,1.49c.78.83,1.43,1.26,2.45.85,3.25-1.29,6.49-2.63,9.73-3.95,2.6-1.05,5.14-2.29,7.81-3.1,2.93-.89,6-1.21,9-2.12,2.38-.73,4.62-2,6.79-1.31.54-.49.83-1,1.18-1,2.16-.34,4.34-.56,6.5-.88,2-.29,4-1.07,6-.89,4.5.41,8.55-2,13-1.69a32.59,32.59,0,0,0,4.52-.12c3.84-.26,7.69-.5,11.52-.87,2.66-.26,5.19.92,7.9.38a47.64,47.64,0,0,1,5.85-.32c3-.22,6-.51,9-.78,2.29-.2,4.59-.43,6.88-.62,1.92-.16,3.86-.16,5.76-.43,3.46-.5,6.91-1.13,10.35-1.73,1.54-.27,3.07-.58,4.59-.92.92-.2,2.05-.24,2.68-.8,1.71-1.55,4-1.4,5.89-2.19a42.22,42.22,0,0,1,4.36-1.15c2.15-.61,4.28-1.29,6.43-1.91.65-.19,1.32-.26,2-.42,2.9-.7,5.78-1.45,8.69-2.11a21.15,21.15,0,0,0,2.85-.34c2.5-1,4.93-2.11,7.39-3.2.92-.41,1.79-.94,2.74-1.26,1.33-.44,2.89-.45,4-1.17a5,5,0,0,1,3.9-.94c.45.08,1.12-.45,1.52-.86a32.23,32.23,0,0,0,3-3.36c.64-.86,1.19-1.24,2.25-.74.25.12.83-.27,1.15-.55s.42-.74.72-1a43.43,43.43,0,0,0,3.74-3.23,3.7,3.7,0,0,0,1-2.67c-.13-.8-1.2-.9-2.21-1.08a38.68,38.68,0,0,0-5.79-1.11c-.1,0-.19-.24-.47-.61l2.23-.53-.13-.46-3.17.86c-1-.44-2.16-1.34-3.24-1.3-1.47.06-2.64-.08-3.58-1.2-1.49.87-5.72-.54-7.32-2.39-1.77,1.17-3.12.82-4.41-1-.3-.44-.78-1-1.24-1.05a4.29,4.29,0,0,1-3.85-3.87c-3,1.13-3.17-.08-4.7-2.59a9.68,9.68,0,0,1-2.08-1c-.72-.63-1.17-1.6-1.94-2.12-1.13-.76-1.56-2.47-3.35-2.38a4.78,4.78,0,0,1-2.07-.59c-.82-.37-1.52-1-2.36-1.32a16.9,16.9,0,0,1-6.63-4.5,3.51,3.51,0,0,0-1.91-1.25c-1.94-.16-2.52-2.19-4.15-2.72a9.72,9.72,0,0,1-1.3-.84c-1.33-.7-3.12-.58-4.05-2.23l1.38-.92a2.89,2.89,0,0,0-1.63-.28,3.52,3.52,0,0,1-1.42,0c-2.15-1-4.27-2-6.39-3.05-.23-.11-.33-.47-.54-.65a10.52,10.52,0,0,0-1.56-1.23c-1-.58-2.08-1.08-3.12-1.61-2.16-.26-3.1-2.4-4.87-3.42-1.45.58-4.73-.91-5.77-2.74-.38.2-1,.61-1.08.55a9.24,9.24,0,0,1-.86-1.53c-1.76-.65-4-.14-5.51-1.93a3,3,0,0,0-2.52-.62,3.29,3.29,0,0,1-3.19-1c-1-.9-1.79-1.35-3.07-.52-.47.3-1.3,0-2.17,0l2-.56c-1.46-1.33-2.38-1.3-3.28-.08a.84.84,0,0,1-.69.3,23.59,23.59,0,0,1-4.22-1.16c-1.16-.63-1.86-.9-3-.4a2.4,2.4,0,0,1-1.29.2c-1.93-.34-3.86-.7-5.76-1.16-.45-.11-.8-.6-1.44-1.11a10.84,10.84,0,0,1-7.57-1c-.22-.11-.55,0-.83,0a5.24,5.24,0,0,1-1.24,0,12.24,12.24,0,0,0-2-.63c-1.55-.1-3.11,0-4.67-.06-.36,0-.92,0-1.06-.25-1.08-1.73-2.5-.72-3.8-.52-.5.08-1,.44-1.46.49-1.69.17-3.4.18-5.09.4-4.13.53-8.25,1.16-12.37,1.69a24,24,0,0,1-3,0l.62.49a11.79,11.79,0,0,0-1.33,1.49c-1.17,1.89-2.23,2.29-4.37,1.91a4.57,4.57,0,0,0-2.6.32c-2,.92-3.75,2.19-5.73,3a5.49,5.49,0,0,1-3.17.1,3.72,3.72,0,0,0-3.35.33,9.39,9.39,0,0,1-2.76,1c-1.83.54-3.69,1-5.52,1.53-2.26.67-4.49,1.47-6.77,2.08-1.8.48-3.38,1.06-3.55,3.26,0,.09-.14.16-.21.23-.39,0-.84-.14-1.12,0-2,1.13-4.06,2.29-6,3.53-.73.46-1.2,1.47-1.95,1.7a4.48,4.48,0,0,0-2.76,2.49c-1.48,2.84-4.37,3.44-6.81,1.52a1.68,1.68,0,0,0-1.54,0c-1.43.89-2.79,1.9-4.14,2.92-2.12,1.6-4.21,3.25-6.31,4.88l.19.46c.54,0,1.07,0,1.61,0,2.65-.21,5.29-.54,7.94-.61.58,0,1.18.85,1.78,1.31a12.49,12.49,0,0,1-1.54.77,14.13,14.13,0,0,1-2,.47c-.42.08-1,.3-1.25.11-.88-.79-1.65-.4-2.5,0-2.53,1.14-5.07,1.94-7.48-.2-.53.48-.94.93-1.42,1.29s-1,.63-1.52.93l.41.33a10.58,10.58,0,0,1-1.11,2,8,8,0,0,0-2.26,4.15,26.24,26.24,0,0,1-1.25,4.51c-.36,1.08-3.18,1.66-4.23,1.3-1.66-.57-3.49-1.67-5.16-.37-1.36,1.06-2.15.68-3.1-.39a1.65,1.65,0,0,0-1.16-.56c-1.06.09-2.1.44-3.16.5-.32,0-.8-.49-1-.87a3.15,3.15,0,0,1-.45-1.74c.21-1.3.23-2.95,1-3.79,2.38-2.52,5.15-4.68,7.66-7.08a2.71,2.71,0,0,1,2.56-.79c1.79.28,2.27-.23,2.33-2.06a24.7,24.7,0,0,1,.46-4.64c.36-1.59,1.09-3.1,1.57-4.67a36.69,36.69,0,0,0,1.18-4.57c.49-2.92.79-5.88,1.28-8.8.21-1.29.81-2.51,1-3.8s0-2.35.07-3.51a32.84,32.84,0,0,1,.67-4.77c.25-1.05.49-2.55,2.31-1.68.17.08.46-.07.54-.08-.63-.57-1.59-1-1.8-1.73a5.93,5.93,0,0,1,.19-2.84c.72-3.28,1.61-6.53,2.24-9.83,1-5.31,1.7-10.7,2.92-16,.65-2.8,1.73-5.45,1.24-8.4-.08-.49.33-1.06.48-1.6.38-1.35.81-2.68,1.11-4.05.45-2,.75-4.13,1.2-6.17.34-1.54,1-3,1.2-4.57.34-2.5.23-5.1,2.19-6.32a7.87,7.87,0,0,1,0-2.4c.6-1.43,1.56-2.73,2-4.2.57-1.72,1.2-3.28,2.79-4.32a2.56,2.56,0,0,0,.78-1.23c.86-2.29,3-3.64,5-3.07,1.44-6.37,6.89-7.32,11.72-9.14.55-.24,1-.65,1.52-.82,2-.65,4.13-1.2,6.18-1.85.35-.11.84-.57.82-.83a1.57,1.57,0,0,0-.71-1.18c-2.07-.71-4.23-1.2-5.77-3-.51,1.68-1.57,1.08-2.55.88A12.08,12.08,0,0,0,369,42.7c-.92,0-1.83.43-2.75.47-2.05.09-4.11,0-6.16.07-1.44,0-3,.37-4-1,0-.06-.21,0-.39-.08l-.34,1.08c-.77.18-1.3.27-1.82.43s-1,.45-1.57.6c-3.55,1-7.14,1.78-10.63,2.89-2.92.93-5.42-.25-6-3.21a33.44,33.44,0,0,0-4.6.38c-2.36.51-4.65,1.35-7,1.9-1.06.25-2.66-.3-3.21.28-1.66,1.75-3.61,1.72-5.67,1.7a3.58,3.58,0,0,0-1.32.21c-1.27.5-2.5,1.13-3.79,1.6a50.34,50.34,0,0,1-5.07,1.63c-1.61.4-3.31.3-4.92.83-1,.32-2.51-.06-3,.53-.77,1-1.67.76-2.52.94-3.2.66-6.42,1.23-9.62,1.85-1.24.24-2.83.14-3.65.87-2.24,2-5.83,1.85-7.4,4.79a.55.55,0,0,1-.22.23c-1.39.68-2.81,1.32-4.18,2-.38.2-.93.68-.89.94.23,1.37-.91,1.69-1.63,2.32-1.33,1.18-2.72,2.3-4,3.49a21.74,21.74,0,0,0-2.1,2.13c-.88,1-1.68,2.15-2.51,3.23l-.37-.3a8.69,8.69,0,0,1-.34,1.62c-.68,1.64-1.44,3.26-2.16,4.89-.43,1-.81,2.16.33,2.71,1.44.69,1.16,1.55.78,2.62-.27.75-.45,1.54-.7,2.43Zm39.47,339c-.63,1-1.31,2.06-1.9,3.12-1.15,2.1-2.21,4.65-4.83,4.83a40,40,0,0,1-10.56-.51c-3.19-.64-3.75-.78-5.09,2.28-.22.49-.76,1.14-1.2,1.18a38.56,38.56,0,0,1-6.53.26c-2.17-.17-4.3-1.1-6.45-1.13-3.29,0-6-1.46-8.72-2.76-1,1.32-2,2.77-3.91,3.08a35.12,35.12,0,0,1-3.91.85,35,35,0,0,1-7.24-.23,28.81,28.81,0,0,1-6-2.14,21.26,21.26,0,0,1-3.77-2,2.71,2.71,0,0,0-3.82.4,11.23,11.23,0,0,1-8.54,4.34,10.34,10.34,0,0,1-4.68-.56c-1.06-.44-1.56.29-1.24,1.23,1.12,3.27.86,6.62.76,10-.08,2.75-.2,5.5-.25,8.25-.06,3.48-.11,7-.08,10.45,0,2.52.23,5,.24,7.57a19.48,19.48,0,0,1-.51,2.78c-.31,2.08-.51,4.18-.87,6.25-.3,1.75-.73,3.49-1.17,5.22s-1,3.18-1.31,4.81c-.37,2.07-.53,4.18-.73,6.27,0,.2.3.43.46.65.86,1.19,2.12,1.09,3.35,1,3.23-.27,6.47-.51,9.68-.93a8.09,8.09,0,0,0,4-1.25c1.41-1.17,2.92-2.76,3.32-4.43a3.2,3.2,0,0,1,1.81-2.25,8.65,8.65,0,0,1,3-1.1,7.68,7.68,0,0,1,2.83.25,2.74,2.74,0,0,1,1.52.93c1.13,1.59,2.09,3.3,3.21,4.89s2.34,2.26,4.21,1.44a8.44,8.44,0,0,1,1.5-.16c1.56-.34,3.14-.62,4.65-1.11s2.76-1.57,4.19-1.68c3.67-.27,6.43,2,9.25,4,2.29,1.59,4.55,3.33,7.63,2.29a12.13,12.13,0,0,0,3.54-1.39,30.39,30.39,0,0,0,4.43-4.36,2.09,2.09,0,0,0,0-2c-1.56-1.24-.23-2.28.18-3.22a3,3,0,0,1,1.87-1.3,7.08,7.08,0,0,1,6.12,1.41c.93.65,1.85,1.36,3.12.33.94-.77,2.21-1.14,3.24-1.82a41.06,41.06,0,0,0,4.6-3.42,5.6,5.6,0,0,0,1-2.32c.41-1.19.86-2.14,2.41-2.29a7.79,7.79,0,0,1,7.46,3.55,6.78,6.78,0,0,0,1.39,1.11,5.47,5.47,0,0,0,.84-1.88c0-1.6-.23-3.2-.28-4.8a28.13,28.13,0,0,0-2.19-9.43,33.25,33.25,0,0,1-2.23-8.79c-.39-4.35.06-8.76-.63-13.12-.11-.7,0-1.45-.13-2.14-.44-2.3-1.11-4.57-1.37-6.88-.31-2.73-.26-5.5-.47-8.24a1.7,1.7,0,0,0-.92-1.24C295.26,432.52,294.63,430.58,293,429.11ZM202.19,559.16a46.31,46.31,0,0,0,2.08-4.18c.91-2.37,2.76-.61,4.11-1,2.65-.84,3.64.41,5.08,2.9,1.11,1.92,2.49,3.58,4.91,4,2.23.39,4.39,1,6.74.84,2.08-.17,2.79-.53,3.76-2.32a64.92,64.92,0,0,1,4.27-6.73c.83-1.16,2.25-1.92,3-3.11,2.15-3.47,2.07-3.52,6-3,2.88.39,3.54,1.09,4.07,4,.11.6.53,1.47,1,1.61a8.85,8.85,0,0,0,3.61.4c3.47-.5,6.92-1.2,10.37-1.84,2.72-.5,5-.07,6.48,2.6a3,3,0,0,0,3.81,1.29c2.94-1.11,6.39-1.33,8.43-4.35.79-1.16,2.3-1.89,2.93-3.1,1-2,2.52-2.31,4.43-2.25a9.86,9.86,0,0,0,2.11-.42c.08.1.23.51.53.67,1,.52,5.34-.52,6-1.5a11.3,11.3,0,0,0,2.24-5.63c.13-2.34.81-2.88,3.16-2.68,2.15.18,3.16-.66,3.5-2.77.28-1.76,0-3.55.06-5.32s.54-3.56.79-5.32a3,3,0,0,1,1.24-1.95,2.56,2.56,0,0,0,1.23-3.31c-.73-2.6-1.59-5.17-2.36-7.77s-1.48-5.09-2.22-7.63a5.59,5.59,0,0,0-.31-.76,34.26,34.26,0,0,1-1.51-3.31c-.43-1.29-2.37-2.78-3.55-2.27a15.55,15.55,0,0,0-3.85,2.39c-1.66,1.42-3.12,3.07-4.71,4.58a1.69,1.69,0,0,1-1.13.34c-1.6-.07-3.2-.2-4.79-.33s-3.44-.12-4.52,1.52c-.77,1.17-1.37,2.44-2,3.67-1.11,2-2.08,4.25-5.09,3.66-.19,0-.42.15-.64.19a28.79,28.79,0,0,1-4.08.71c-2.48.1-5,0-7.44,0-3,0-5.4-1.44-7.61-3.36a2.81,2.81,0,0,0-2.15-.6c-2.36.58-4.5,1.75-7.13,1.43s-5.52.14-8.22-.22c-2.15-.29-4.47-.42-6.29-2.08a2.89,2.89,0,0,0-2.51-.63,10.76,10.76,0,0,0-3.61,2.86,4.34,4.34,0,0,1-3.7,1.6c-.85,0-1.7,0-2.55,0a47,47,0,0,0-5,.12c-2.54.32-5.05.82-7.56,1.32a3.29,3.29,0,0,0-1.88.86,10.56,10.56,0,0,0-1.91,3.38,91.45,91.45,0,0,0-2.21,9.32c-.61,3.48-1,7-1.34,10.53-.11,1,.21,2,.13,3-.23,2.73-.65,5.45-.84,8.19a12.19,12.19,0,0,0,.3,4.19C196.74,555,198.55,557.83,202.19,559.16Zm91-175,1.49-1.44c1.08-1,2.56-1.89,3.16-3.16.8-1.7.91-3.72,1.33-5.61.82-3.75,2.59-4.83,6.3-3.82a6.3,6.3,0,0,0,1.6.46,1.51,1.51,0,0,0,1.14-.67c1.52-3.32.49-6.87.77-10.31.1-1.18-.82-2.44.32-3.58.08-.08-.21-.5-.26-.77a16.88,16.88,0,0,1-.38-2.5c0-1.12.14-2.24.12-3.37,0-1.62-.17-3.23-.18-4.85,0-1.77.36-3.59,0-5.3-.2-1.13-1.19-2.84-2-3-1.54-.26-3.25.44-4.87.79-.81.18-1.58.53-2.38.71-2.94.68-5.8-.08-8.66-.6a12.22,12.22,0,0,1-2.1-.42c-2.37-.88-4.71-1.83-6.8-2.65a9.23,9.23,0,0,1-5.7,3.7,45.31,45.31,0,0,1-7.23.45,12.13,12.13,0,0,1-2.36,0c-1.87-.29-3.72-.67-5.58-1-1-.2-2-.49-3.08-.6-2.43-.24-4.2,1.29-6.12,2.41-1.49.87-2.95,2-4.56,2.36a19.68,19.68,0,0,1-5.9-.18A5.65,5.65,0,0,1,237.2,339a4.58,4.58,0,0,0-4.12-1.73A61.4,61.4,0,0,1,223,337c-2.21-.35-2.11.39-2.35,2a42.38,42.38,0,0,1-1.81,6.12c-.63,2-1.28,4-1.91,6-.46,1.46-1.53,2.69-1.11,4.47.21.88-.42,2-.59,3-.49,2.89-.58,5.9-1.49,8.65-1.21,3.66-1.9,7.16,0,10.7.39.74,1.38,1.18,2.09,1.75a17.63,17.63,0,0,1,1.13-1.8c.65-.82,1.28-2.06,2.12-2.25a52.29,52.29,0,0,1,6.66-.73,10.92,10.92,0,0,1,.69,2,3.33,3.33,0,0,1-.18,1.67c-.55,1.24-1.49,2.36-1.79,3.65a4.59,4.59,0,0,0,5.23,5.68c2-.3,3.87-.74,5.18-2.44a18.62,18.62,0,0,0-.2-2.15c-.29-1.41.68-2.44,1-3.65a6.29,6.29,0,0,1,5.74-5.17,2.54,2.54,0,0,1,2.48,3.07,9.71,9.71,0,0,0,.54,5.75c.19.42.83,1,1.17.94,2.49-.42,5.27.06,7.19-2.24a13.37,13.37,0,0,1,1.77-1.73c1.15-1,1.91-2.86,4-1.68.29.16.85-.18,1.29-.22a3.21,3.21,0,0,1,1.27,0c2.24.75,3.1,2.37,2.79,4.77,3.95,4,8.46,5.54,13.61,3.73.21-2.25,0-4.41.67-6.26,1.2-3.37,4.83-3.84,7.18-1.18.19.21.39.53.61.56,1,.15,1.14.86,1.56,1.62.52,1,.62,2.59,2.34,2.57C291,384.17,292.27,384.18,293.2,384.18Zm-28.63,49.1a3.69,3.69,0,0,1,.07-.7c.59-1.6.75-3.76,1.89-4.63s3.43-.77,5.21-1c.3,0,.74.3,1,.58,2.29,2.63,5.44,2.51,8.45,2.5a6.2,6.2,0,0,0,3-1.42c1.9-1.31,3.75-2.72,5.53-4.19.58-.48,1.39-1.56,1.21-1.93-.94-2,.63-2.6,1.69-3,1.54-.52,3.31-.34,4.92-.73.82-.2,2.18-1.08,2.12-1.49-.27-1.94,1.2-2.66,2.23-3.55s2.28-3.94,1.86-5.3a16.84,16.84,0,0,1-.76-3.9c-.25-4.36-.34-8.73-.56-13.09-.07-1.37-.36-2.74-.6-4.46-1.11.74-1.93,1.26-2.72,1.82-1.49,1.05-2.82,2.55-4.47,3.08s-3.68.2-5.54.15c-1.22,0-2.52-.56-3.64-.28-3.52.87-7,2-10.45,3.05a10.25,10.25,0,0,1-8.41-.89c-.67-.37-1.37-.7-2-1.06a39.18,39.18,0,0,1-4.44-2.42,3.85,3.85,0,0,0-3.3-.8,10.28,10.28,0,0,1-1.66,0,3.7,3.7,0,0,0-1.62.26c-1,.58-4,.92-4.58.53-.61.39-1.09.94-1.63,1-2.43.3-4.87.57-7.32.64-1.4,0-2.66,0-3.67,1.22-.59.71-1.37,1.67-2.14,1.74-2.16.2-4,1.32-6.43,1a13.27,13.27,0,0,1-9.43-5.47c-.7-.93-1.36-1.72-2.69-1.71a9,9,0,0,1-1.93-.54c-.9-.21-1.81-.35-2.72-.53a10.44,10.44,0,0,0-.27,1.09c-.24,2-.39,4.09-.71,6.12-.2,1.28-.73,2.51-.93,3.79-.32,2.1-.29,4.28-.79,6.33-.45,1.84-1.63,3.5-1.16,5.54a1.82,1.82,0,0,1-.1.83,49.42,49.42,0,0,0-1.86,13.06c0,3,.51,5.51,2.67,7.47a3.25,3.25,0,0,0,2.86.54c2.28-1,3.38-3.23,4.17-5.48.73-2.08,2-3.25,3.84-3,1,.13,1.89.68,2.68-.37.07-.1.64,0,.75.14.7.95,1.8,1.9,1.9,2.93.16,1.62,1.12,2,2.27,2.49,2.6,1.15,5.23,2.27,7.73,3.61,1.94,1,5.16.79,6.66-.78.73-.77,1.55-1.45,2.25-2.25a2.53,2.53,0,0,0,.53-1.31,3.52,3.52,0,0,1,2.92-3.34,14.54,14.54,0,0,1,3.2,0c.74,0,1.7-.5,2.07.83.21.75,1.14,1.31,1.3,2.05.51,2.36,1.63,3.59,4,4Zm-30.75-103c-.3-1.82-1-3.3,1.29-3.31.08,0,.11-.42.25-.54.78-.63,1.55-1.68,2.38-1.74a11,11,0,0,1,4.4.69c1.56.55,2,3.11,1.35,4.68a3.8,3.8,0,0,0,.44,2.91c.23.39,1.58.31,2.35.13,1.47-.34,2.67-1.71,4.41-1.09.22.08.71,0,.77-.18.7-1.79,2.63-2,3.89-3.07s2.62-1,4.24-.56a24,24,0,0,1,3.35,1.69c3.73,1.6,7.63,2.29,11.54.43a55.55,55.55,0,0,0,6.83-3.45,5.58,5.58,0,0,1,3.1-1.27,5.83,5.83,0,0,1,4.21,1.83A15.14,15.14,0,0,0,293,330.1a5.12,5.12,0,0,0,3-.16,26.6,26.6,0,0,0,5.26-1.71c1-.51,1.66-1.84,3.15-1.12.18.09.72-.19.84-.43.65-1.27.71-2.89,2.51-3.42.32-.1.35-1.33.45-2.05.22-1.53.36-3.07.61-4.59a45,45,0,0,1,1-5.38c.78-2.67,1.77-5.28,2.65-7.88a8.94,8.94,0,0,0-1.78-.94c-1.24-.33-1.91-.9-1.87-2.32,0-.44-.71-.89-1.17-1.43a12.83,12.83,0,0,1-7.3,5.3c-1.35.38-2.42.62-3.64-.15a1.87,1.87,0,0,0-1.28,0c-2.2.62-4.36,1.37-6.58,1.92-7.18,1.8-7.65,1.16-12.86-2.17-.29-.18-.41-.64-.58-1s-.3-1-.64-1.33a8.51,8.51,0,0,1-2.69-4.16c-.26-1-.75-1.66-2.22-1.11-4.34,1.61-8.69,2-13-.41-1-.58-2.67-.28-4-.16-3.68.34-7.34,1.15-11-.12-.89-.31-1.86-.36-2.76-.63-1.49-.45-3.2-.67-4.39-1.56-2-1.52-4.27-1.82-6.75-2.17-.16.76-.32,1.4-.42,2.05-.28,1.95-.63,3.89-.77,5.85-.19,2.87-.31,5.75-.29,8.63,0,1.72.59,3.45.54,5.16-.12,4.09-.5,8.17-.71,12.26a18.56,18.56,0,0,0,.18,4.05,1.91,1.91,0,0,0,1.38,1.19C229.72,330.33,231.68,330.24,233.82,330.24Zm-17.51-93.82,0-.37a13.21,13.21,0,0,0-2.2-2.49c-1.54-1.05-3.31-1.7-4.48-3.33-.62-.87-1.79-1.33-2.6-2.09s-1.76-.77-2.34,0c-.25.33.14,1.61.61,1.93,2.6,1.8,5.28,3.48,8,5.11A21.46,21.46,0,0,0,216.32,236.43ZM168.9,198.62l-.32.34a3,3,0,0,0,.4.61c1.56,1.45,3.15,2.87,4.7,4.34a4.67,4.67,0,0,1,.65,1.12,2.18,2.18,0,0,0,3.33.29Zm-8.66-3,.34-.73-6.77-3.13-.37.79Zm19.92,13.78.24-.55L179,207.07l-.43,0c0,.55-.2,1.24.06,1.6S179.64,209.17,180.16,209.38Z" transform="translate(0.06 -32.09)"/><path class="cls-1" d="M416.34,187.55c.87,2.3,1.54,4,2.17,5.77.32.89.63,1.68-.4,2.54a6.05,6.05,0,0,1-3.82,1.64,11.92,11.92,0,0,0-4.51,1.71c-1.76.94-3.33,2.14-5.53,2.05-.75,0-1.49.94-2.31,1.28-2.46,1-5,1.81-7.43,2.92-3.09,1.42-6.08,3.07-9.13,4.6a66.91,66.91,0,0,0-6.49,3.23c-2.39,1.54-4.54,3.45-6.78,5.23-1.4,1.11-2.77,2.26-4.16,3.37a8.28,8.28,0,0,1-2,1.42c-1,.38-1.58.06-1.47-1.24.13-1.52.14-2.67,1.44-4.08a63.64,63.64,0,0,1,5.16-4.93,2.75,2.75,0,0,0,1-1.7c.06-2.29,1.93-3,3.32-4.15.85-.69,1.82-1.26,2.73-1.88.23-.15.45-.46.66-.46,2.76.09,4.35-2.5,7-3,1.65-.29,3.07-1.75,4.67-2.51s3.45-1.28,5.1-2.07c1.19-.57,2.22-1.45,3.35-2.14a3.48,3.48,0,0,1,1.11-.26,24.83,24.83,0,0,0,12.14-5.6C413.27,188.32,415.08,188.06,416.34,187.55Z" transform="translate(0.06 -32.09)"/><path class="cls-1" d="M303.58,90.15a14,14,0,0,0,2.15-.4c2-.77,4.24.2,4.15,2.74a30.82,30.82,0,0,1-1.06,5,15.15,15.15,0,0,1-.31,2c-1,2.83-2,5.67-3.23,8.44-1,2.35-2.2,4.62-3.39,6.89-.57,1.08-1.34,2-2,3.1-1.34,2.28-2.71,4.55-3.94,6.9-1.47,2.79-2.82,5.64-4.18,8.49-.39.83-.55,1.77-1,2.58-.52,1-1.21,1.93-2,3.08-.07,1-.16,2.5-.29,4a27.62,27.62,0,0,1-.55,4.43c-.2.78-.72,1.36.08,2.09a1.16,1.16,0,0,1,0,1.06c-1.62,3-.62,5.6,1.65,7.71,1.78,1.65,3.25,3.66,5.12,5.19a55.63,55.63,0,0,0,6,3.8c-1.67.94-3.08.34-4.48,0-.63-.16-1.21-.49-1.84-.67-4.12-1.21-7.89-3.23-9.34-7.41a20.48,20.48,0,0,1-1.06-10.91c.19-.9-.34-2.07.07-2.76,1-1.69-.13-3.26.12-4.86a8.9,8.9,0,0,1,.35-1.22c.13-.43.26-.87.41-1.3a15,15,0,0,1,.59-1.49c.14-.3.61-.61.55-.8-.51-1.72.52-3.16.76-4.73.15-1,.07-1.94,1.44-2a1,1,0,0,0,.69-.62c.52-1.46.89-3,1.49-4.42a31.34,31.34,0,0,1,1.72-3.06c1.34-2.43,2.71-4.84,4-7.3.5-1,.73-2.1,1.15-3.13.92-2.29,1.45-4.9,2.92-6.77,2-2.51,1.83-5.55,3-8.22.38-.88-.07-2.1-.07-3.16C303.41,91.6,303.52,90.84,303.58,90.15Z" transform="translate(0.06 -32.09)"/><path class="cls-1" d="M221.17,169.73c-.62,3.12-1.12,3.45-4.17,2.5a42.36,42.36,0,0,1-4-1.8,3.86,3.86,0,0,0-1.58-.41,8.23,8.23,0,0,1-5-1.45c-1.07-.69-2.61-.67-4-.91a9.77,9.77,0,0,0-1.65,0c.15-1.92-.08-2-1.86-1.59a14.43,14.43,0,0,1-3.61.06c-.22,0-.41-.43-.63-.63-.39-.34-.89-1-1.18-.91-2.54.66-4.62-1.09-7-1.26a18.06,18.06,0,0,1-4.15-1c-.36-.11-.56-.71-.89-1.17-.91.27-2,.83-2.53-.66a.69.69,0,0,0-.58-.3c-2.15.3-3.53-1.35-5.12-2.24-1.94-1.09-3.8-2.75-4.16-5.1a6.68,6.68,0,0,1,1.89-5.19,2.74,2.74,0,0,0,.49-1.23,11.76,11.76,0,0,1,.49-3,60.22,60.22,0,0,1,3.62-6.3c.91-1.4,4-1.28,5,.07a32.09,32.09,0,0,1,2.51,3.35c1,1.65,1.77,3.41,2.64,5.12l-.54.55a15.62,15.62,0,0,1-2.55-1.68c-.24-.23.1-1.08.18-1.69-.69-.43-1.56-1-2.48-1.52-1.22-.64-4,.71-4.46,2a6.08,6.08,0,0,1-.79,1.32,13.43,13.43,0,0,1-.2,2.25,4.92,4.92,0,0,0,3.17,5.87c2.1.77,3.93,2.32,6.4,2.15a2.82,2.82,0,0,1,2,1c1.1,1.36,3,.26,4.27,1.75.71.84,2.88.37,4.37.64a39.34,39.34,0,0,1,4.45,1.11c1.32.4,2.6.92,3.88,1.44a5.85,5.85,0,0,1,1.09.86l-2.46.75,0,.59c.92.21,1.86.36,2.76.64s1.88.71,3,1.14l.17-1.25c3.07-.39,6.8.62,8.37,2.37a3.85,3.85,0,0,1-3.72-.85c-1-.72-2-.94-2.78.1Z" transform="translate(0.06 -32.09)"/></g><path class="cls-2" d="M322.53,281.44a1.27,1.27,0,0,0,0,.82c.55,2.05-.17,4-.65,5.91-.14.56-.81,1.06-1.35,1.43a39.74,39.74,0,0,1-3.42,2c-.3.16-.89.25-1.05.08a2.19,2.19,0,0,1-.54-1.28c-.13-1.8-.56-3.4-2.18-4.48a3.64,3.64,0,0,0-5.1.82c-1.5,1.81-3,3.59-4.63,5.31a10.45,10.45,0,0,1-1.86,1.3l-2.88,2a7.82,7.82,0,0,0-10,1.73,5.56,5.56,0,0,1-6,1.18c-1.32-.69-2.54-1.59-3.77-2.38,2.22-3.52,1.2-6.39-.29-9.11a26.19,26.19,0,0,0-3.06,0c-2.16.27-4.32.56-6.45,1-1.42.29-2.77.91-4.17,1.28-1.74.46-2.7-.49-2.89-2.21-.13-1.18-.5-2.8-1.33-3.33-2-1.25-4.31-1.6-6.22.38a18.39,18.39,0,0,0-1.81,2.81l-6.33,1.46c.25-3-.46-3.86-3.5-4.66-1-.26-1.78-1.12-2.74-1.41a3.14,3.14,0,0,0-1.95.4c-1.54.71-2.94,1.15-4.61.1-.73-.46-1.91-.22-3.2-.33.72-1.73,1.39-3.47,2.16-5.17l-6.12-.88c-.45,1.36-1,2.69-1.6,4.25a10.06,10.06,0,0,0-2.73,0,4.39,4.39,0,0,0-2.51,5.82,3.39,3.39,0,0,1,.21.49c-1.65.94-.47,2.59-.95,3.84a11.92,11.92,0,0,0-.4,2.79q-.42,3.49-.83,7a5.09,5.09,0,0,0,0,.77c.11,3.18.19,6.37.36,9.55.08,1.47.38,2.93.57,4.39,0,.26.12.7,0,.77-1.19.78-.66,1.92-.68,2.94,0,1.46,0,3.36-1.43,3.8-1.87.57-1.77,2.36-1.82,3.12-.26,4.39-.61,8.67-2.31,12.83a101.35,101.35,0,0,0-3,9.78c-.35,1.19-.55,2.42-.84,3.63-.72,3-1.48,5.95-2.19,8.93-.87,3.69-1.81,7.36-2.51,11.08-.44,2.33-1.46,4.74,0,7.11a1.3,1.3,0,0,1,.16.81q-.45,2.88-1,5.74c-.33,1.84-1.08,3.69-1,5.5.22,4.09-1.72,7.79-1.71,11.87,0,2.29-1,4.66-1.85,6.86-1.93,4.83-1.9,9.86-1.84,14.89,0,2.65-.36,5-2.94,6.37a1.68,1.68,0,0,0-.73,1.32,19.61,19.61,0,0,0,.74,3.33c.54,1.88,1.14,3.74,1.72,5.61.1.31.28.6.35.92a51.3,51.3,0,0,1,1.35,6.58,31.56,31.56,0,0,1-.38,5.93c-.25,2.32-.81,4.63-.85,7-.06,3,.3,6,.42,8.93a51.45,51.45,0,0,1,0,6.57,69.79,69.79,0,0,1-1.26,7.84c-.78,3.75-1.66,7.49-2.6,11.21-.46,1.83-1.31,3.58-1.7,5.42a5.76,5.76,0,0,0,.88,4.71,8.4,8.4,0,0,1,1.57,3.17c.36,2-.72,3.53-2.06,4.91a3.3,3.3,0,0,0-1,1.3c-.33,1.46-.47,3-.71,4.45-.62,3.9-1.26,7.8-1.87,11.7a41.5,41.5,0,0,0-.64,4.77c-.06,1.59.29,3.19.23,4.78-.09,2.9-.42,5.79-.49,8.69a11.86,11.86,0,0,0,.6,3.35,15.88,15.88,0,0,0,1.33,3.74,31.81,31.81,0,0,0,2.83,3.68A14.61,14.61,0,0,0,202.32,567c2.52.19,3.92-.93,5.37-2.55a1.74,1.74,0,0,1,1.62-.34c1.42.77,2.63,2,4.12,2.56a32.59,32.59,0,0,0,6.51,1.4c3.42.46,6.73-.25,10.08-1,3.81-.88,5.64-3.76,7.54-6.63a30.86,30.86,0,0,0,1.23-3c.19-.37.9-.86,1.16-.76,1.78.7,3.5,1.57,5.26,2.33a6.93,6.93,0,0,0,2.45.83,24.35,24.35,0,0,0,10.13-1.65,2.26,2.26,0,0,1,2.06.24c1.67,2.08,4.21,2.45,6.4,2.77a26.2,26.2,0,0,0,9.11-.35c3.21-.69,6.24-2.19,9.33-3.4a22.75,22.75,0,0,0,2.69-1.55c.82-1.89,3.3-3.52,5.85-3.82,3-.36,6.21-.29,8.76-2.27a14.5,14.5,0,0,0,3.65-3.8c.6-1,.6-2.17,2.2-1.48a.81.81,0,0,0,.72-.25,37.86,37.86,0,0,0,3.41-5c1.06-2.17,1.69-4.55,2.56-6.82.64-1.67,1.53-3.26,2-5a10.8,10.8,0,0,0,.51-4.78c-.51-2.45-1.84-4.75-1.49-7.35a5.67,5.67,0,0,0-.55-3.17c-1.64-4-3.46-7.85-3.9-12.25-.22-2.18-.29-4,1.28-5.77a5.07,5.07,0,0,0,1.31-3.22,94.8,94.8,0,0,0-1.07-10.58,47,47,0,0,0-1.84-6.43,22.71,22.71,0,0,1-1.07-2.87c-.47-2.84-.86-5.7-1.12-8.57-.23-2.63-.22-5.28-.37-7.91-.11-2-.2-4-.5-6-.42-2.76-1.12-5.49-1.53-8.25a33.57,33.57,0,0,1,0-4.13c-.06-2.62-1.38-5.31.55-7.81.22-.28-.06-.93-.11-1.54,3-1.62,3.21-4.83,4-7.69a39.73,39.73,0,0,0,.49-4.53,31.71,31.71,0,0,0,.77-4.22c0-2.07-.44-4.14-.5-6.21s-1.74-4.26-.08-6.46a2.12,2.12,0,0,0,.12-1.44c-.41-2.43-1-4.83-1.27-7.28a9,9,0,0,1,.5-4.61c1.32-2.68,3.17-5.09,4.71-7.67a4.85,4.85,0,0,0,.59-2.26c0-1.09-.31-2.2-.24-3.28.14-2.17,1.32-4.19.9-6.48a23.59,23.59,0,0,1,0-3.36c-.08-2.61-.23-5.21-.28-7.82,0-1,.25-2,.2-3-.06-1.4-.3-2.79-.43-4.19-.28-2.93,0-5.92-1.43-8.72-.66-1.25-.82-2.82,1-3.74a2.78,2.78,0,0,0,1.15-1.75c.66-3.1,1.2-6.23,1.76-9.35a2,2,0,0,0-.17-.81,18.38,18.38,0,0,1-1.16-4.22,24.43,24.43,0,0,1,2.21-11.32,14.69,14.69,0,0,0,1.22-4.67c.12-1.12.67-1.42,1.51-1.71,1.68-.59,3.36-1.18,5-1.83a2.39,2.39,0,0,0,1-.84c1.73-2.48,1-5.83,3-8.25.05-.07,0-.22,0-.33.14-2.71.22-5.43.45-8.14C331.7,278.7,323.62,279.53,322.53,281.44ZM207,411.48a1.82,1.82,0,0,0,.1-.83c-.46-2,.72-3.7,1.16-5.54.5-2.05.47-4.23.79-6.33.2-1.28.73-2.51.93-3.79.31-2,.47-4.08.71-6.12a10.5,10.5,0,0,1,.27-1.09c.91.17,1.82.32,2.72.53a9,9,0,0,0,1.93.54c1.33,0,2,.78,2.69,1.71a13.27,13.27,0,0,0,9.43,5.47c2.39.3,4.27-.82,6.43-1,.77-.07,1.55-1,2.14-1.74,1-1.22,2.27-1.18,3.67-1.22,2.45-.07,4.89-.34,7.32-.64.54-.07,1-.61,1.63-1,.58.38,3.58,0,4.58-.53a3.71,3.71,0,0,1,1.62-.26,10.25,10.25,0,0,0,1.66,0,3.85,3.85,0,0,1,3.3.8,39.19,39.19,0,0,0,4.44,2.42c.68.36,1.38.69,2,1.06a10.25,10.25,0,0,0,8.41.89c3.46-1.09,6.93-2.19,10.45-3.05,1.12-.28,2.42.25,3.64.28,1.86,0,3.85.39,5.54-.15s3-2,4.47-3.08c.79-.56,1.61-1.08,2.72-1.82.24,1.73.53,3.09.6,4.46.22,4.36.32,8.73.56,13.09a16.84,16.84,0,0,0,.76,3.9c.41,1.35-.8,4.38-1.86,5.3s-2.5,1.61-2.23,3.55c.06.41-1.3,1.3-2.12,1.49-1.61.39-3.37.21-4.92.73-1.07.36-2.63,1-1.69,3,.18.38-.63,1.45-1.21,1.93-1.78,1.48-3.63,2.88-5.53,4.19a6.2,6.2,0,0,1-3,1.42c-3,0-6.17.14-8.45-2.5-.24-.28-.68-.61-1-.58-1.78.22-3.95,0-5.21,1s-1.31,3-1.89,4.63a3.72,3.72,0,0,0-.07.7L257,432c-2.36-.39-3.48-1.61-4-4-.16-.74-1.09-1.3-1.3-2.05-.37-1.33-1.33-.78-2.07-.83a14.53,14.53,0,0,0-3.2,0,3.52,3.52,0,0,0-2.92,3.34,2.53,2.53,0,0,1-.53,1.31c-.7.8-1.52,1.48-2.25,2.25-1.5,1.57-4.72,1.81-6.66.78-2.51-1.34-5.13-2.46-7.73-3.61-1.15-.51-2.11-.87-2.27-2.49-.1-1-1.2-2-1.9-2.93-.12-.16-.68-.24-.75-.14-.8,1.05-1.72.5-2.68.37-1.87-.25-3.11.91-3.84,3-.79,2.24-1.88,4.45-4.17,5.48a3.25,3.25,0,0,1-2.86-.54c-2.16-2-2.69-4.45-2.67-7.47A49.42,49.42,0,0,1,207,411.48Zm-5.59,85.18c.29-1.63.91-3.2,1.31-4.81s.86-3.46,1.17-5.22c.36-2.07.56-4.17.87-6.25a19.55,19.55,0,0,0,.51-2.78c0-2.52-.22-5-.24-7.57,0-3.48,0-7,.08-10.45,0-2.75.16-5.5.25-8.25.1-3.35.36-6.69-.76-10-.32-.95.17-1.67,1.24-1.23a10.33,10.33,0,0,0,4.68.56,11.23,11.23,0,0,0,8.54-4.34,2.71,2.71,0,0,1,3.82-.4,21.25,21.25,0,0,0,3.77,2,28.81,28.81,0,0,0,6,2.14,35,35,0,0,0,7.24.23,35.19,35.19,0,0,0,3.91-.85c2-.31,2.91-1.75,3.91-3.08,2.75,1.3,5.43,2.73,8.72,2.76,2.15,0,4.28,1,6.45,1.13a38.55,38.55,0,0,0,6.53-.26c.44,0,1-.69,1.2-1.18,1.34-3.06,1.91-2.92,5.09-2.28a40.06,40.06,0,0,0,10.56.51c2.62-.18,3.68-2.72,4.83-4.83.58-1.07,1.26-2.09,1.9-3.12,1.65,1.47,2.28,3.41,4.3,4a1.7,1.7,0,0,1,.92,1.24c.21,2.74.16,5.51.47,8.24.27,2.32.94,4.58,1.37,6.88.13.7,0,1.44.13,2.14.7,4.35.24,8.77.63,13.12a33.24,33.24,0,0,0,2.23,8.79,28.13,28.13,0,0,1,2.19,9.43c0,1.6.3,3.2.28,4.8a5.47,5.47,0,0,1-.84,1.88,6.77,6.77,0,0,1-1.39-1.11,7.79,7.79,0,0,0-7.46-3.55c-1.55.15-2,1.1-2.41,2.29a5.6,5.6,0,0,1-1,2.32,41,41,0,0,1-4.6,3.42c-1,.69-2.3,1.05-3.24,1.82-1.27,1-2.19.33-3.12-.33a7.08,7.08,0,0,0-6.12-1.41,3,3,0,0,0-1.87,1.3c-.41.94-1.74,2-.18,3.22a2.09,2.09,0,0,1,0,2,30.38,30.38,0,0,1-4.43,4.36,12.12,12.12,0,0,1-3.54,1.39c-3.07,1-5.34-.7-7.63-2.29-2.82-2-5.59-4.22-9.26-4-1.43.1-2.76,1.21-4.19,1.68s-3.09.77-4.65,1.11a8.44,8.44,0,0,0-1.5.16c-1.88.82-3.19,0-4.21-1.44s-2.08-3.3-3.21-4.89a2.74,2.74,0,0,0-1.52-.93,7.69,7.69,0,0,0-2.83-.25,8.64,8.64,0,0,0-3,1.1,3.19,3.19,0,0,0-1.81,2.25c-.4,1.67-1.91,3.27-3.32,4.43a8.09,8.09,0,0,1-4,1.25c-3.21.42-6.45.66-9.68.93-1.22.1-2.49.2-3.35-1-.16-.22-.48-.45-.46-.65C200.92,500.84,201.08,498.73,201.45,496.66Zm104.29,12.28c.77,2.59,1.63,5.16,2.36,7.77a2.56,2.56,0,0,1-1.23,3.31,3,3,0,0,0-1.24,1.95c-.25,1.77-.68,3.5-.79,5.32s.22,3.56-.06,5.32c-.33,2.1-1.35,2.95-3.5,2.77-2.35-.2-3,.35-3.16,2.68a11.3,11.3,0,0,1-2.24,5.63c-.65,1-5,2-6,1.5-.29-.16-.45-.57-.53-.67a9.89,9.89,0,0,1-2.11.42c-1.91-.06-3.41.28-4.43,2.25-.63,1.21-2.14,1.93-2.93,3.1-2,3-5.48,3.24-8.43,4.35a3,3,0,0,1-3.81-1.29c-1.45-2.66-3.76-3.1-6.48-2.6-3.45.64-6.9,1.34-10.37,1.84a8.85,8.85,0,0,1-3.61-.4c-.46-.13-.88-1-1-1.61-.53-2.94-1.18-3.64-4.07-4-3.95-.54-3.87-.49-6,3-.74,1.19-2.16,2-3,3.11a64.88,64.88,0,0,0-4.27,6.73c-1,1.79-1.68,2.16-3.76,2.32-2.35.19-4.51-.44-6.74-.84-2.42-.43-3.79-2.09-4.91-4-1.44-2.49-2.43-3.74-5.08-2.9-1.35.43-3.21-1.34-4.11,1a46.28,46.28,0,0,1-2.08,4.18c-3.64-1.34-5.45-4.15-6.45-7.52a12.2,12.2,0,0,1-.3-4.19c.18-2.74.61-5.45.84-8.19.08-1-.24-2-.13-3,.38-3.52.73-7,1.34-10.53a91.28,91.28,0,0,1,2.21-9.32A10.56,10.56,0,0,1,201.6,513a3.29,3.29,0,0,1,1.88-.86c2.51-.5,5-1,7.56-1.32a47.18,47.18,0,0,1,5-.12c.85,0,1.7,0,2.55,0a4.34,4.34,0,0,0,3.7-1.6,10.75,10.75,0,0,1,3.61-2.86,2.89,2.89,0,0,1,2.51.63c1.83,1.65,4.15,1.79,6.29,2.08,2.7.36,5.51-.12,8.22.22s4.78-.85,7.13-1.43a2.8,2.8,0,0,1,2.15.6c2.21,1.92,4.58,3.34,7.61,3.35,2.48,0,5,.13,7.44,0a28.75,28.75,0,0,0,4.08-.71c.22,0,.45-.23.64-.19,3,.59,4-1.63,5.09-3.66.67-1.23,1.27-2.51,2-3.67,1.08-1.63,2.79-1.66,4.52-1.52s3.19.26,4.79.33a1.69,1.69,0,0,0,1.13-.34c1.59-1.51,3-3.16,4.71-4.58a15.55,15.55,0,0,1,3.85-2.39c1.18-.51,3.12,1,3.55,2.27a34.17,34.17,0,0,0,1.51,3.31,5.61,5.61,0,0,1,.31.76C304.27,503.85,305,506.41,305.74,508.95ZM309,359.63c-.29,3.44.75,7-.77,10.31a1.51,1.51,0,0,1-1.14.67,6.29,6.29,0,0,1-1.6-.46c-3.72-1-5.48.07-6.3,3.82-.41,1.88-.53,3.91-1.33,5.61-.59,1.27-2.07,2.12-3.16,3.16l-1.49,1.44c-.93,0-2.18,0-3.43,0-1.72,0-1.82-1.61-2.34-2.57-.42-.77-.56-1.48-1.56-1.63-.23,0-.43-.35-.61-.56-2.35-2.66-6-2.2-7.18,1.18-.66,1.85-.46,4-.67,6.26-5.15,1.8-9.66.29-13.61-3.73.31-2.41-.55-4-2.79-4.77a3.21,3.21,0,0,0-1.27,0c-.44,0-1,.38-1.29.22-2.1-1.18-2.86.73-4,1.68a13.4,13.4,0,0,0-1.77,1.73c-1.92,2.3-4.7,1.82-7.19,2.24-.34.06-1-.52-1.17-.94a9.71,9.71,0,0,1-.54-5.75,2.54,2.54,0,0,0-2.48-3.07,6.29,6.29,0,0,0-5.74,5.17c-.29,1.2-1.26,2.24-1,3.65a18.61,18.61,0,0,1,.2,2.15c-1.31,1.7-3.22,2.14-5.18,2.44a4.6,4.6,0,0,1-5.23-5.68c.3-1.28,1.25-2.4,1.79-3.65a3.32,3.32,0,0,0,.18-1.67,10.94,10.94,0,0,0-.69-2,52.34,52.34,0,0,0-6.66.73c-.84.19-1.47,1.43-2.12,2.25a17.7,17.7,0,0,0-1.13,1.8c-.71-.58-1.7-1-2.09-1.75-1.85-3.54-1.16-7,0-10.7.91-2.75,1-5.76,1.49-8.65.17-1,.81-2.07.59-3-.43-1.78.65-3,1.11-4.47.63-2,1.28-4,1.91-6a42.38,42.38,0,0,0,1.81-6.12c.25-1.63.14-2.37,2.35-2a61.38,61.38,0,0,0,10.11.31A4.58,4.58,0,0,1,237.2,339a5.65,5.65,0,0,0,4.09,2.18,19.67,19.67,0,0,0,5.9.18c1.61-.31,3.08-1.49,4.56-2.36,1.92-1.13,3.69-2.65,6.12-2.41,1,.1,2.05.4,3.08.6,1.86.35,3.71.74,5.58,1a12.14,12.14,0,0,0,2.36,0,45.34,45.34,0,0,0,7.23-.45,9.23,9.23,0,0,0,5.7-3.7c2.08.82,4.43,1.77,6.8,2.65a12.24,12.24,0,0,0,2.1.42c2.87.52,5.72,1.28,8.66.6.81-.19,1.57-.54,2.38-.71,1.63-.35,3.33-1,4.87-.79.85.14,1.83,1.85,2,3,.31,1.71-.05,3.53,0,5.3,0,1.62.16,3.23.18,4.85,0,1.12-.16,2.25-.12,3.37a16.84,16.84,0,0,0,.38,2.5c0,.27.34.69.26.77C308.17,357.2,309.09,358.45,309,359.63Zm.77-48.38a45,45,0,0,0-1,5.38c-.25,1.52-.39,3.06-.61,4.59-.1.72-.12,2-.45,2.05-1.81.53-1.86,2.15-2.51,3.42-.12.24-.66.51-.84.43-1.49-.72-2.12.61-3.15,1.12a26.58,26.58,0,0,1-5.26,1.71,5.12,5.12,0,0,1-3,.16,15.15,15.15,0,0,1-4.33-2.72,5.83,5.83,0,0,0-4.21-1.83,5.59,5.59,0,0,0-3.1,1.27,55.52,55.52,0,0,1-6.83,3.45c-3.91,1.86-7.81,1.16-11.54-.43a24,24,0,0,0-3.35-1.69c-1.61-.44-3-.47-4.24.56s-3.19,1.28-3.89,3.07c-.06.14-.55.25-.77.18-1.74-.63-2.94.75-4.41,1.09-.77.18-2.11.25-2.35-.13a3.8,3.8,0,0,1-.44-2.91c.6-1.57.2-4.12-1.35-4.68a11,11,0,0,0-4.4-.69c-.84.07-1.61,1.11-2.38,1.74-.14.12-.17.54-.25.54-2.27,0-1.58,1.49-1.29,3.31-2.14,0-4.11.08-6.06-.06a1.91,1.91,0,0,1-1.38-1.19,18.55,18.55,0,0,1-.18-4.05c.21-4.09.58-8.17.71-12.26.05-1.71-.52-3.44-.54-5.16,0-2.88.09-5.76.29-8.63.13-2,.49-3.9.77-5.85.09-.65.26-1.3.42-2.05,2.48.35,4.71.65,6.75,2.17,1.19.89,2.89,1.11,4.39,1.56.9.27,1.88.32,2.76.63,3.67,1.27,7.33.47,11,.12,1.34-.12,3-.43,4,.16,4.34,2.42,8.68,2,13,.41,1.47-.55,2,.14,2.22,1.11a8.51,8.51,0,0,0,2.69,4.16c.34.31.42.88.64,1.33s.3.8.58,1c5.21,3.33,5.68,4,12.86,2.17,2.21-.56,4.38-1.3,6.58-1.92a1.87,1.87,0,0,1,1.28,0c1.22.77,2.29.53,3.64.15a12.83,12.83,0,0,0,7.3-5.3c.46.53,1.18,1,1.17,1.43,0,1.41.63,2,1.87,2.32a8.94,8.94,0,0,1,1.78.94C311.53,306,310.54,308.58,309.76,311.26Z" transform="translate(0.06 -32.09)"/></svg>