<svg id="Layer_1" data-name="Layer 1" xmlns="http://www.w3.org/2000/svg" width="18.9509mm" height="22.741mm" viewBox="0 0 53.719 64.4628"><title>temple-24px</title><path d="M13.184,41.7827a1.8377,1.8377,0,0,1,1.2345-.9155,1.8584,1.8584,0,0,1,.9711.3243l5.2417,2.93a147.0638,147.0638,0,0,0,5.7367-18.9q1.6759-7.1144,2.7638-14.35a8.6793,8.6793,0,0,1,1.0648-3.4321.7588.7588,0,0,1,.4155.6153,160.1588,160.1588,0,0,1,1.6321,18.0922c.1651,3.1258.3218,6.2528.5791,9.3727.1739,2.1094-.1169,6.9036,1.3849,8.3449,1.2408-.7972,2.3439-1.872,3.5183-2.7853.6118-.4758,1.5646-.9187,2.0682-.33a1.5534,1.5534,0,0,1,.2792.7692c.1344.7858,2.5686,12.9731,2.9013,12.8067a9.4589,9.4589,0,0,1-4.0372.7631,225.6613,225.6613,0,0,1-23.9408.117,35.9452,35.9452,0,0,1-6.0185-.5712c-2.295-.563-2.0283-.6444-1.1575-2.9828A40.7731,40.7731,0,0,1,13.184,41.7827Z" fill="#fab71d" stroke="#1d1d1b" stroke-miterlimit="10" stroke-width="0.272"/></svg>