<svg id="Layer_1" data-name="Layer 1" xmlns="http://www.w3.org/2000/svg" width="13.6123mm" height="19.1196mm" viewBox="0 0 38.5862 54.1973"><title>temple-24px</title><path d="M36.18,51.723A79.0971,79.0971,0,0,1,24.1383,36.4272,10.2466,10.2466,0,0,1,22.84,33.6445a11.4729,11.4729,0,0,1,.0252-4.1274,125.3259,125.3259,0,0,0,.446-26.1088L20.0978,17.8972c-1.2117,5.4627-1.017,13.95-5.2832,18.1461C10.4989,40.2879,6.9177,45.5449,3.368,50.477c.3871.8692,1.522,1.0516,2.4729,1.0846,4.3395.15,8.5282-.1056,12.8536-.0343q4.4831.0739,8.9666.1236C29.0405,51.6661,35.2974,50.8493,36.18,51.723Z" fill="#fab71d" stroke="#1d1d1b" stroke-miterlimit="10" stroke-width="0.272"/></svg>